<?xml version="1.0" encoding="utf-8"?>
<!-- Generator: Adobe Illustrator 19.0.0, SVG Export Plug-In . SVG Version: 6.00 Build 0)  -->
<svg version="1.1" id="Layer_1" xmlns="http://www.w3.org/2000/svg" xmlns:xlink="http://www.w3.org/1999/xlink" x="0px" y="0px"
	 viewBox="302 448.2 682 418" style="enable-background:new 302 448.2 682 418;" xml:space="preserve">
<style type="text/css">
	.st0{fill:#FFFFFF;}
	.st1{fill:#231F20;stroke:#000000;stroke-width:0.75;stroke-miterlimit:10;}
	.st2{fill:#231F20;}
	.st3{fill:#5E6384;}
	.st4{fill:#4E64AE;}
	.st5{fill:#A7AFD9;}
	.st6{fill:#2A2D38;stroke:#000000;stroke-miterlimit:10;}
	.st7{fill:#2A2D38;}
	.st8{fill:#93C83E;}
	.st9{fill:url(#SVGID_1_);}
	.st10{fill:url(#SVGID_2_);}
	.st11{fill:url(#SVGID_3_);}
	.st12{fill:#EAA3C8;}
	.st13{fill:#231F20;stroke:#000000;stroke-width:0.25;stroke-miterlimit:10;}
	.st14{fill:#ED2024;}
	.st15{fill:#EE1F5C;}
	.st16{fill:none;stroke:#000000;stroke-width:3;stroke-linecap:round;stroke-miterlimit:10;}
	.st17{fill:#6E5DA8;}
	.st18{fill:#0D302E;}
</style>
<g id="guestbook">
	<g>
		<path d="M642.9,696.3l88.9,23.3c5.4,1.4,8.8,3.9,7.3,5.6L634.8,843.3c-6.7,7.5-18.5,7.8-25.5,0.5l-95.8-99.2
			c-2.1-2.2,1.2-5.7,7.1-7.8l113.3-40.4C636.1,695.6,640.1,695.6,642.9,696.3L642.9,696.3z"/>
		<path class="st0" d="M641,696.9l89.7,24c3,0.8,4.8,2.2,3.9,3.1L629.9,835.4c-4.1,4.4-11.2,4.5-15.6,0.3l-95.9-93
			c-1.2-1.2,0.5-3.1,3.8-4.3L636,697C637.2,696.6,639.4,696.5,641,696.9L641,696.9z"/>
		<g>
			<path class="st1" d="M617.1,794.8l1.7,1.3l4.5-3.7l0.3,0.2c0,0.2,0,0.4,0.1,0.5c0,0.1,0.2,0.3,0.4,0.4c0.3,0.2,0.6,0.3,1,0.4
				c0.4,0.1,0.8,0.2,1.3,0.3c0.5,0.1,1,0.3,1.6,0.5c0.6,0.2,1.2,0.6,1.9,1.1c1,0.8,1.8,1.6,2.3,2.4c0.5,0.9,0.8,1.9,0.9,3
				c0.1,1.2,0,2.3-0.4,3.5c-0.4,1.2-1.2,2.4-2.3,3.5c-0.8,0.7-1.6,1.3-2.4,1.7c-0.8,0.4-1.7,0.8-2.4,1c-0.8,0.2-1.5,0.3-2.1,0.4
				c-0.6,0.1-1.1,0.1-1.5,0.1c-1.4,0-2.7-0.2-4-0.5c-1.3-0.4-2.5-1-3.6-1.9c-0.6-0.5-1-0.9-1.2-1.3c-0.3-0.4-0.5-0.7-0.6-1
				s-0.3-0.6-0.4-0.8c-0.1-0.3-0.3-0.5-0.6-0.7c-0.3-0.2-0.5-0.4-0.7-0.4c-0.2,0-0.4,0-0.7,0l-0.3-0.3l4.4-3.6l0.2,0.2
				c-0.3,0.3-0.6,0.8-1,1.3c-0.3,0.5-0.6,1.2-0.7,1.8c-0.1,0.7-0.1,1.4,0.2,2.2s0.8,1.5,1.8,2.3c1.1,0.9,2.2,1.5,3.4,1.6
				c1.2,0.2,2.3,0.1,3.4-0.3s2.2-0.9,3.3-1.6c1.1-0.7,2-1.5,2.9-2.3c0.6-0.6,1.2-1.1,1.8-1.7c0.5-0.6,1-1.2,1.4-1.8
				c0.4-0.6,0.7-1.2,0.9-1.8s0.2-1.2,0.1-1.7c-0.1-0.6-0.3-1.2-0.7-1.7c-0.3-0.5-0.9-1-1.6-1.5c-0.5-0.3-1-0.6-1.6-0.8
				c-0.6-0.2-1.2-0.3-1.8-0.3c-0.6,0-1.3,0.1-1.9,0.3s-1.3,0.5-1.8,1l-1.7,1.4l2.8,2.1l-0.3,0.2l-6.4-4.9L617.1,794.8L617.1,794.8z"
				/>
			<path class="st1" d="M606.5,801.8l-6.3-5.3l0.3-0.2l2.1,1.8l10.2-7.8c0.8-0.6,1.4-1.2,1.8-1.7s0.6-1,0.7-1.5
				c0.1-0.5,0-0.9-0.3-1.3c-0.3-0.4-0.6-0.8-1.1-1.1c-0.7-0.5-1.4-0.9-2.2-1.1c-0.7-0.2-1.6-0.3-2.5-0.2c-0.3,0-0.6,0.1-0.8,0.1
				s-0.5,0.1-0.8,0.3c-0.3,0.1-0.6,0.3-1,0.5c-0.4,0.2-0.8,0.5-1.3,0.8l-9.8,7l2,1.7l-0.3,0.2l-4.3-3.6l0.3-0.2l2,1.7l10.2-7.3
				c0.6-0.4,1.1-0.7,1.7-1c0.6-0.2,1.3-0.4,2.1-0.5c0.8-0.1,1.6,0,2.5,0.2c0.9,0.2,1.8,0.7,2.8,1.4c1.5,1.1,2.3,2.3,2.4,3.4
				c0.1,1.2-0.7,2.5-2.3,3.7l-10,7.8l2.2,1.9L606.5,801.8L606.5,801.8z"/>
			<path class="st1" d="M606.6,779.7l-1.9-1.4l-14.1,9.6l1.9,1.6l-0.3,0.2l-9.5-7.9l3.7-2.3l0.2,0.1c-0.4,0.5-0.8,0.9-1,1.3
				s-0.4,0.8-0.5,1.2c-0.1,0.4,0,0.7,0.1,1.1c0.2,0.3,0.5,0.7,0.9,1.1l2.7,2.3l6.6-4.4l-1.1-0.8c-0.4-0.3-0.7-0.5-1.1-0.7
				c-0.3-0.2-0.7-0.2-1.1-0.2c-0.4,0-0.9,0.1-1.4,0.3c-0.5,0.2-1.2,0.4-1.9,0.7l-0.2-0.1l6.4-4.1l0.2,0.1c-0.3,0.3-0.6,0.6-0.9,0.9
				c-0.3,0.3-0.5,0.6-0.6,0.9c-0.1,0.3-0.2,0.6-0.1,0.9c0.1,0.3,0.3,0.6,0.7,0.9l1.4,1.1l7.2-4.8l-3.2-2.3c-0.6-0.4-1.3-0.7-2-0.8
				c-0.7-0.1-1.4-0.1-2,0c-0.7,0.1-1.3,0.2-1.9,0.4c-0.6,0.2-1,0.4-1.4,0.6l-0.2-0.1l4.3-2.7l10.2,7.4L606.6,779.7L606.6,779.7z"/>
			<path class="st1" d="M590.3,773.2l-0.2-0.1c0.6-0.5,1-1,1.3-1.4c0.3-0.4,0.5-0.8,0.6-1.2c0.1-0.3,0.1-0.7,0-0.9
				c-0.1-0.3-0.2-0.5-0.3-0.7s-0.3-0.4-0.5-0.6c-0.2-0.2-0.4-0.3-0.6-0.5c-0.5-0.4-1-0.6-1.6-0.8c-0.5-0.1-1.1-0.2-1.6-0.1
				s-1,0.1-1.4,0.3c-0.4,0.2-0.8,0.3-1.1,0.5c-0.5,0.3-0.8,0.5-1,0.8c-0.2,0.3-0.3,0.6-0.4,0.8c0,0.3,0,0.6,0.1,0.8
				c0.1,0.3,0.2,0.5,0.3,0.7l1,1.7c0.5,0.8,0.6,1.6,0.5,2.3c-0.1,0.7-0.7,1.3-1.7,1.9c-0.6,0.4-1.3,0.7-2,0.9
				c-0.7,0.2-1.4,0.3-2.1,0.3c-0.7,0-1.4-0.1-2-0.3s-1.2-0.5-1.6-0.9c-0.3-0.3-0.6-0.5-0.7-0.8s-0.2-0.5-0.3-0.7
				c0-0.2-0.1-0.4-0.1-0.5c0-0.2-0.1-0.3-0.3-0.4c-0.1-0.1-0.2-0.2-0.3-0.2c-0.1,0-0.3,0-0.5,0.1l-0.2-0.2l3.8-2.2l0.2,0.1
				c-0.4,0.3-0.8,0.7-1.2,1.1c-0.3,0.4-0.6,0.8-0.7,1.2s-0.2,0.8-0.1,1.2c0.1,0.4,0.3,0.8,0.8,1.1c0.2,0.2,0.5,0.4,0.9,0.6
				c0.4,0.2,0.8,0.3,1.3,0.4c0.5,0.1,1,0.1,1.5,0c0.5-0.1,1.1-0.3,1.6-0.7c0.5-0.3,0.8-0.6,1-0.9c0.2-0.3,0.3-0.6,0.3-0.9
				s0-0.6-0.1-0.9s-0.2-0.6-0.4-0.8l-1-1.9c-0.1-0.2-0.2-0.4-0.4-0.7c-0.1-0.3-0.2-0.6-0.2-1c0-0.4,0.1-0.7,0.4-1.1
				c0.3-0.4,0.7-0.8,1.4-1.2c0.6-0.3,1.3-0.6,2-0.8s1.4-0.3,2.2-0.3c0.7,0,1.4,0.1,2.1,0.3c0.7,0.2,1.4,0.5,1.9,0.9
				c0.2,0.2,0.4,0.3,0.5,0.4c0.1,0.1,0.3,0.2,0.4,0.3c0.1,0.1,0.2,0.2,0.3,0.4s0.2,0.3,0.3,0.4c0.1,0.2,0.3,0.4,0.4,0.6
				s0.3,0.4,0.5,0.5c0.1,0.1,0.3,0.2,0.4,0.2c0.1,0,0.3,0,0.5-0.1l0.2,0.2L590.3,773.2L590.3,773.2z"/>
			<path class="st1" d="M583,762.5l-1.5-1.1l-13.6,7.5l0.8,0.6c0.2,0.2,0.4,0.3,0.7,0.5c0.3,0.2,0.6,0.3,1.1,0.3s1,0,1.7,0
				c0.7-0.1,1.5-0.3,2.5-0.7l0.1,0.1l-3.8,2.2l-7.9-6.6l3.8-2l0.1,0.1c-0.7,0.5-1.2,1-1.5,1.4c-0.3,0.4-0.4,0.8-0.4,1.1
				c0,0.3,0.1,0.5,0.2,0.8s0.3,0.4,0.5,0.5l0.7,0.6l13.6-7.3l-1.5-1.1l0.3-0.1l4.3,3.1L583,762.5L583,762.5z"/>
			<path class="st1" d="M576,757.4l-1.4-1l-13.5,6.9l1.3,1.1l-0.3,0.2l-2.1-1.8c-0.1-0.1-0.2-0.2-0.4-0.3s-0.3-0.2-0.4-0.3
				c-0.1-0.1-0.3-0.2-0.4-0.3c-0.1-0.1-0.2-0.2-0.4-0.3c-0.6-0.5-0.9-0.9-1-1.3c-0.1-0.4-0.1-0.8,0-1.1c0.1-0.3,0.4-0.6,0.7-0.9
				c0.3-0.3,0.6-0.5,1-0.6c0.4-0.2,0.9-0.4,1.4-0.5c0.5-0.1,1-0.1,1.4-0.1s0.9,0.1,1.3,0.2s0.8,0.3,1.1,0.5l0,0
				c-0.2-0.2-0.4-0.5-0.6-0.8s-0.2-0.6-0.1-1c0-0.3,0.2-0.6,0.5-1c0.3-0.3,0.7-0.6,1.2-0.9s1.2-0.5,1.8-0.6s1.2-0.2,1.8-0.2
				c0.6,0,1.2,0.2,1.8,0.3c0.6,0.2,1.2,0.5,1.7,0.9c0.1,0.1,0.2,0.2,0.3,0.3c0.1,0.1,0.2,0.2,0.3,0.3c0.1,0.1,0.2,0.2,0.3,0.3
				s0.3,0.2,0.4,0.3l2.2,1.6L576,757.4L576,757.4z M566.2,759.2l-1.1-0.9c-0.2-0.2-0.5-0.3-0.7-0.4c-0.3-0.1-0.6-0.1-0.9-0.1
				c-0.4,0-0.8,0.1-1.2,0.2c-0.5,0.1-1,0.4-1.6,0.7c-0.7,0.3-1.2,0.7-1.5,1c-0.3,0.3-0.5,0.6-0.6,0.8c-0.1,0.3,0,0.5,0.1,0.7
				s0.3,0.4,0.5,0.6c0.1,0.1,0.3,0.2,0.4,0.3c0.2,0.1,0.3,0.2,0.4,0.3L566.2,759.2L566.2,759.2z M573.3,755.5
				c-0.1-0.1-0.2-0.2-0.3-0.3c-0.1-0.1-0.3-0.2-0.5-0.4c-0.4-0.3-0.8-0.5-1.1-0.6s-0.8-0.2-1.2-0.2s-0.9,0.1-1.5,0.3
				c-0.5,0.2-1.2,0.4-1.9,0.8c-1,0.5-1.7,1-2,1.5s-0.2,1,0.3,1.4l1.3,1L573.3,755.5L573.3,755.5z"/>
			<path class="st1" d="M561,754.4c-1,0.5-2.1,0.9-3.2,1.1s-2.2,0.4-3.2,0.4c-1,0-2-0.1-2.8-0.3c-0.8-0.2-1.5-0.5-1.9-0.8
				c-0.5-0.4-0.7-0.8-0.8-1.4c-0.1-0.5,0.1-1.1,0.4-1.6s0.8-1.1,1.5-1.7s1.5-1,2.5-1.5c0.9-0.4,1.8-0.7,2.8-0.9s2-0.4,3-0.4
				c1,0,1.9,0,2.7,0.2c0.8,0.2,1.5,0.4,2.1,0.8c0.5,0.4,0.9,0.8,1,1.4c0.1,0.5,0,1.1-0.3,1.6c-0.3,0.6-0.8,1.1-1.4,1.7
				S562,754,561,754.4L561,754.4z M559.8,753.4c1.2-0.5,2.1-1,2.8-1.5s1.3-0.9,1.6-1.3c0.4-0.4,0.5-0.8,0.4-1.2
				c-0.1-0.4-0.3-0.7-0.8-1s-1-0.6-1.6-0.7c-0.6-0.1-1.3-0.1-2,0c-0.8,0.1-1.6,0.3-2.5,0.6c-0.9,0.3-1.9,0.7-3.1,1.2
				c-0.9,0.4-1.7,0.8-2.5,1.2c-0.8,0.4-1.4,0.9-1.9,1.3c-0.5,0.4-0.8,0.9-0.9,1.3s0.1,0.9,0.6,1.3s1.1,0.7,1.9,0.8
				c0.7,0.1,1.5,0,2.4-0.1c0.8-0.2,1.7-0.4,2.6-0.8C558,754.2,558.9,753.8,559.8,753.4L559.8,753.4z"/>
			<path class="st1" d="M552.3,747.5c-1,0.4-2,0.8-3.1,1c-1.1,0.2-2.1,0.3-3.1,0.3c-1,0-1.8-0.1-2.6-0.2c-0.8-0.2-1.3-0.4-1.7-0.7
				c-0.4-0.3-0.6-0.8-0.6-1.2s0.2-1,0.5-1.5c0.3-0.5,0.8-1,1.5-1.5c0.7-0.5,1.5-0.9,2.5-1.3c0.9-0.3,1.8-0.6,2.7-0.8
				c1-0.2,1.9-0.3,2.8-0.4s1.8,0,2.5,0.2c0.8,0.1,1.4,0.4,1.9,0.7c0.5,0.3,0.8,0.8,0.8,1.2c0,0.5-0.1,1-0.4,1.4
				c-0.3,0.5-0.8,1-1.5,1.5S553.2,747.1,552.3,747.5L552.3,747.5z M551.1,746.7c1.1-0.5,2-0.9,2.8-1.3c0.7-0.4,1.3-0.8,1.6-1.2
				c0.4-0.4,0.5-0.7,0.5-1c0-0.3-0.3-0.6-0.7-0.9s-0.9-0.5-1.4-0.6s-1.2-0.1-1.9,0c-0.7,0.1-1.5,0.3-2.4,0.5c-0.9,0.3-1.9,0.7-3,1.1
				c-0.8,0.3-1.6,0.7-2.4,1.1c-0.8,0.4-1.4,0.8-1.9,1.2c-0.5,0.4-0.8,0.8-0.9,1.2s0.1,0.8,0.5,1.2c0.4,0.4,1,0.6,1.7,0.7
				c0.7,0.1,1.4,0,2.2-0.1c0.8-0.1,1.7-0.4,2.5-0.7C549.4,747.4,550.3,747,551.1,746.7L551.1,746.7z"/>
			<path class="st1" d="M550.9,739.2l-1-0.7l-12.5,5l1,0.8l-0.3,0.1l-2.7-2.3l0.3-0.1l0.9,0.7l5.9-2.3l-0.1-0.1l-8.4,0.3l0.9,0.7
				l-0.3,0.1l-1.7-1.4l0.3-0.1l0.7,0.6l7.1-0.2l4.3-5.2l-0.5-0.4l0.2-0.1l2.5,1.8l-0.2,0.1l-0.8-0.6l-3.6,4.4l0.1,0l6.3-2.5
				l-0.9-0.7l0.2-0.1l2.8,2L550.9,739.2L550.9,739.2z"/>
		</g>
		<g>
			<path class="st2" d="M631.3,756.9l-8.4,5.6l-10.6-6.3l1.7-1l1.7,1l6.7-4.1l3.5,1.9l-6.7,4.2l1.8,1l6.7-4.3L631.3,756.9
				L631.3,756.9z M620.7,751.1l-6.7,4l-1.7-1l6.7-4L620.7,751.1L620.7,751.1z"/>
			<path class="st2" d="M615.8,748.4l-1.6,0.9l1.6,0.9l-5,2.9l-1.6-0.9l-1.7,1l-4.7-2.8l1.7-1l3.1,1.8l1.7-1l-3.1-1.8l-1.7,0.9
				l-1.5-0.9l3.4-1.8l4.6,2.6l1.6-0.9l-4.6-2.6l1.6-0.9L615.8,748.4L615.8,748.4z"/>
			<path class="st2" d="M606.6,743.4l-1.6,0.9l1.5,0.8l-5,2.7l-1.5-0.9l-1.7,0.9l-4.3-2.5l1.7-0.9l-1.4-0.8l5-2.5l1.4,0.8l1.6-0.8
				L606.6,743.4L606.6,743.4z M602.1,742.7l-5,2.6l1.4,0.8l5-2.6L602.1,742.7L602.1,742.7z"/>
			<path class="st2" d="M598.2,738.8l-1.6,0.8l1.4,0.8l-6.7,3.3l-2.7-1.6l6.7-3.2l-1.3-0.7l1.6-0.8L598.2,738.8L598.2,738.8z
				 M594.2,736.7l-1.6,0.8l1.3,0.7l-6.7,3.2l-2.5-1.5l6.7-3.1l-1.3-0.7l1.6-0.7L594.2,736.7L594.2,736.7z M590.1,736l-6.6,3
				l-1.2-0.7l6.6-3L590.1,736z"/>
			<path class="st2" d="M673,760.4l-6.8,5.9l-13.1-6.7l1.5-1.1l2.1,1l5.5-4.3l4.2,2l-5.5,4.5l2.2,1.1l5.5-4.5L673,760.4L673,760.4z
				 M660,754.3l-5.5,4.3l-2-1l5.6-4.2L660,754.3L660,754.3z"/>
			<path class="st2" d="M654,751.4l-1.4,1l2,1l-4.2,3.1l-2-1l-1.5,1l-5.8-2.9l1.5-1l3.8,1.9l1.4-1l-3.8-1.9l-1.5,1l-1.9-0.9l2.9-1.9
				l5.7,2.8l1.4-1l-5.6-2.7l1.4-0.9L654,751.4L654,751.4z"/>
			<path class="st2" d="M642.8,746.1l-1.4,0.9l1.8,0.9l-4.3,2.8l-1.8-0.9l-1.5,1l-5.3-2.7l1.5-0.9l-1.7-0.8l4.3-2.6l1.7,0.8l1.4-0.9
				L642.8,746.1L642.8,746.1z M637.9,745.3l-4.3,2.7l1.8,0.9l4.3-2.8L637.9,745.3L637.9,745.3z"/>
			<path class="st2" d="M632.6,741.3l-1.4,0.8l1.6,0.8l-5.8,3.5l-3.3-1.7l5.9-3.4l-1.6-0.8l1.4-0.8L632.6,741.3L632.6,741.3z
				 M627.8,739l-1.4,0.8l1.6,0.8l-5.8,3.3l-3.1-1.6l5.9-3.3l-1.5-0.7l1.4-0.8L627.8,739L627.8,739z M623.4,738.3l-5.9,3.2l-1.5-0.8
				l5.9-3.2L623.4,738.3L623.4,738.3z"/>
			<path class="st2" d="M692.5,753.7l-5.6,5.3l-13.5-6l1.2-1l2.2,0.9l4.6-3.9l4.3,1.8l-4.6,4l2.3,1l4.5-4.1L692.5,753.7L692.5,753.7
				z M679.3,748.2l-4.7,3.8l-2.1-0.9l4.7-3.8L679.3,748.2L679.3,748.2z"/>
			<path class="st2" d="M673.1,745.6l-1.2,0.9l2,0.9l-3.6,2.8l-2-0.9l-1.2,1l-6-2.7l1.3-0.9l3.9,1.7l1.2-0.9l-3.9-1.7l-1.2,0.9
				l-1.9-0.8l2.5-1.8l5.8,2.5l1.2-0.9l-5.8-2.5l1.2-0.8L673.1,745.6L673.1,745.6z"/>
			<path class="st2" d="M661.6,740.8l-1.2,0.8l1.9,0.8l-3.7,2.6l-1.9-0.8l-1.3,0.9l-5.5-2.4l1.3-0.8l-1.8-0.8l3.7-2.4l1.8,0.7
				l1.2-0.8L661.6,740.8L661.6,740.8z M656.8,740.1l-3.7,2.5l1.8,0.8l3.7-2.5L656.8,740.1L656.8,740.1z"/>
			<path class="st2" d="M651,736.3l-1.2,0.8l1.7,0.7l-5,3.2l-3.4-1.5l5.1-3.1l-1.7-0.7l1.2-0.7L651,736.3L651,736.3z M646.1,734.3
				l-1.2,0.7l1.6,0.7l-5.1,3.1l-3.3-1.5l5.1-3l-1.6-0.7l1.2-0.7L646.1,734.3L646.1,734.3z M641.7,733.6l-5.1,2.9l-1.6-0.7l5.1-2.9
				L641.7,733.6L641.7,733.6z"/>
			<path class="st2" d="M636.8,730.4l-6.4,3.5l-8.7-3.9l1.3-0.7l1.4,0.6l5.1-2.6l2.8,1.2l-5.1,2.7l1.4,0.6l5.1-2.7L636.8,730.4
				L636.8,730.4z M628.1,726.8l-5.1,2.5l-1.4-0.6l5.1-2.5L628.1,726.8z"/>
			<path class="st2" d="M624,725.1l-1.3,0.6l1.3,0.6l-3.8,1.9l-1.4-0.6l-1.3,0.6l-3.9-1.8l1.3-0.6l2.6,1.2l1.3-0.6l-2.6-1.1
				l-1.3,0.6l-1.3-0.6l2.6-1.2l3.9,1.7l1.3-0.6l-3.9-1.6l1.3-0.6L624,725.1L624,725.1z"/>
			<path class="st2" d="M616.3,721.8l-1.3,0.6l1.3,0.5l-3.9,1.8l-1.3-0.5l-1.3,0.6l-3.7-1.6l1.3-0.6l-1.2-0.5l3.8-1.7l1.2,0.5
				l1.3-0.5L616.3,721.8L616.3,721.8z M612.6,721.4l-3.8,1.7l1.2,0.5l3.9-1.7L612.6,721.4L612.6,721.4z"/>
			<path class="st2" d="M609.1,718.8l-1.3,0.5l1.2,0.5l-5.2,2.2l-2.3-1l5.1-2.1l-1.1-0.5l1.3-0.5L609.1,718.8L609.1,718.8z
				 M605.7,717.4l-1.3,0.5l1.1,0.5l-5.1,2.1l-2.2-1l5.1-2.1l-1.1-0.5l1.3-0.5L605.7,717.4L605.7,717.4z M602.2,717l-5.1,2l-1.1-0.5
				l5.1-2L602.2,717L602.2,717z"/>
			<path class="st2" d="M702.5,744.7l-4.8,4.6l-13-5.1l1-0.9l2.1,0.8l4-3.4l4.2,1.6l-3.9,3.5l2.2,0.8l3.9-3.5L702.5,744.7
				L702.5,744.7z M689.8,740l-4,3.3l-2-0.8l4-3.3L689.8,740z"/>
			<path class="st2" d="M683.8,737.7l-1,0.8l2,0.7l-3.1,2.5l-2-0.8l-1.1,0.8l-5.8-2.3l1.1-0.8l3.8,1.5l1.1-0.8l-3.8-1.5l-1.1,0.8
				L672,738l2.1-1.5l5.7,2.2l1-0.8l-5.7-2.1l1-0.7L683.8,737.7L683.8,737.7z"/>
			<path class="st2" d="M672.6,733.6l-1,0.7l1.8,0.7l-3.2,2.3l-1.8-0.7l-1.1,0.8l-5.3-2.1l1.1-0.7l-1.7-0.7l3.3-2.1l1.7,0.7l1.1-0.7
				L672.6,733.6L672.6,733.6z M668,732.9l-3.2,2.2l1.8,0.7l3.2-2.2L668,732.9L668,732.9z"/>
			<path class="st2" d="M662.3,729.7l-1.1,0.7l1.7,0.6l-4.4,2.8l-3.4-1.3l4.4-2.7l-1.6-0.6l1.1-0.7L662.3,729.7L662.3,729.7z
				 M657.4,727.9l-1.1,0.6l1.6,0.6l-4.5,2.7l-3.2-1.3l4.5-2.6l-1.6-0.6l1.1-0.6L657.4,727.9L657.4,727.9z M653.1,727.3l-4.5,2.6
				l-1.6-0.6l4.5-2.6L653.1,727.3L653.1,727.3z"/>
			<path class="st2" d="M648.2,724.4l-5.6,3.1l-8.6-3.4l1.2-0.6l1.4,0.5l4.5-2.3l2.8,1l-4.5,2.3l1.4,0.6l4.5-2.4L648.2,724.4
				L648.2,724.4z M639.6,721.2l-4.5,2.3l-1.4-0.5l4.5-2.2L639.6,721.2L639.6,721.2z"/>
			<path class="st2" d="M635.5,719.7l-1.1,0.5l1.3,0.5l-3.4,1.7l-1.3-0.5l-1.2,0.6l-3.9-1.5l1.2-0.5l2.6,1l1.2-0.5l-2.6-1l-1.2,0.5
				l-1.3-0.5l2.3-1.1l3.9,1.5l1.1-0.5l-3.9-1.5l1.1-0.5L635.5,719.7L635.5,719.7z"/>
			<path class="st2" d="M627.8,716.9l-1.1,0.5l1.3,0.5l-3.4,1.6l-1.3-0.5l-1.2,0.5l-3.7-1.5l1.2-0.5l-1.2-0.5l3.4-1.5l1.2,0.5
				l1.1-0.5L627.8,716.9L627.8,716.9z M624.3,716.4l-3.4,1.5l1.2,0.5l3.4-1.5L624.3,716.4L624.3,716.4z"/>
			<path class="st2" d="M620.7,714.2l-1.1,0.5l1.2,0.4l-4.6,2l-2.3-0.9l4.6-1.9l-1.1-0.4l1.1-0.5L620.7,714.2L620.7,714.2z
				 M617.2,712.9l-1.1,0.5l1.1,0.4l-4.6,1.9l-2.3-0.9l4.6-1.9l-1.1-0.4l1.1-0.5L617.2,712.9L617.2,712.9z M613.9,712.5l-4.6,1.8
				l-1.1-0.4l4.6-1.8L613.9,712.5L613.9,712.5z"/>
			<path class="st2" d="M710.7,736.8l-4.2,4l-12.5-4.4l0.9-0.8l2,0.7l3.5-2.9l4,1.4l-3.4,3l2.1,0.7l3.4-3.1L710.7,736.8L710.7,736.8
				z M698.5,732.7l-3.5,2.9l-2-0.7l3.5-2.9L698.5,732.7z"/>
			<path class="st2" d="M692.7,730.7l-0.9,0.7l1.9,0.7l-2.7,2.1l-1.9-0.7l-0.9,0.7l-5.6-2l1-0.7l3.7,1.3l0.9-0.7l-3.7-1.3l-0.9,0.7
				l-1.8-0.6l1.9-1.3l5.5,1.9l0.9-0.7l-5.5-1.9l0.9-0.7L692.7,730.7L692.7,730.7z"/>
			<path class="st2" d="M681.8,727.1l-0.9,0.6l1.8,0.6l-2.8,2l-1.8-0.6l-1,0.7l-5.2-1.8l1-0.6l-1.7-0.6l2.9-1.9l1.7,0.6l0.9-0.6
				L681.8,727.1L681.8,727.1z M677.5,726.5l-2.8,1.9l1.7,0.6l2.8-1.9L677.5,726.5L677.5,726.5z"/>
			<path class="st2" d="M671.8,723.7l-1,0.6l1.6,0.6l-3.9,2.5l-3.3-1.2l3.9-2.4l-1.6-0.5l1-0.6L671.8,723.7L671.8,723.7z M667,722.1
				l-1,0.6l1.6,0.5l-3.9,2.4l-3.1-1.1l4-2.3l-1.5-0.5l1-0.6L667,722.1L667,722.1z M663,721.6l-4,2.3l-1.5-0.5l4-2.3L663,721.6
				L663,721.6z"/>
			<path class="st2" d="M658,719l-5,2.7l-8.5-3l1-0.5l1.4,0.5l4-2l2.8,0.9l-4,2.1l1.4,0.5l4-2.1L658,719L658,719z M649.6,716.2l-4,2
				l-1.4-0.5l4-2L649.6,716.2L649.6,716.2z"/>
			<path class="st2" d="M645.5,714.9l-1,0.5l1.3,0.5l-3.1,1.5l-1.3-0.5l-1,0.5l-3.9-1.4l1-0.5l2.6,0.9l1-0.5l-2.6-0.9l-1,0.5
				l-1.3-0.5l2.1-1l3.8,1.3l1-0.5l-3.8-1.3l1-0.5L645.5,714.9L645.5,714.9z"/>
			<path class="st2" d="M637.9,712.3l-1,0.5l1.2,0.4l-3.1,1.4l-1.2-0.4l-1,0.5l-3.7-1.3l1-0.5l-1.2-0.4l3.1-1.3l1.2,0.4l1-0.4
				L637.9,712.3L637.9,712.3z M634.5,711.9l-3.1,1.4l1.2,0.4l3.1-1.4L634.5,711.9L634.5,711.9z"/>
			<path class="st2" d="M630.8,709.9l-1,0.4l1.2,0.4l-4.2,1.8l-2.3-0.8l4.2-1.7l-1.1-0.4l1-0.4L630.8,709.9L630.8,709.9z
				 M627.4,708.7l-1,0.4l1.1,0.4l-4.2,1.7l-2.2-0.8l4.2-1.7l-1.1-0.4l1-0.4L627.4,708.7L627.4,708.7z M624.1,708.4L620,710l-1.1-0.4
				l4.2-1.7L624.1,708.4L624.1,708.4z"/>
			<path class="st2" d="M712.4,728.2l-3.8,3.3l-11.6-3.7l0.8-0.6l1.9,0.6l3.1-2.5l3.7,1.2l-3.1,2.6l1.9,0.6l3-2.6L712.4,728.2
				L712.4,728.2z M701,724.7l-3.2,2.5l-1.8-0.6l3.2-2.4L701,724.7L701,724.7z"/>
			<path class="st2" d="M695.6,723.1l-0.8,0.6l1.8,0.5l-2.4,1.8l-1.8-0.6l-0.8,0.6l-5.3-1.7l0.8-0.6l3.5,1.1l0.8-0.6l-3.5-1.1
				l-0.8,0.6l-1.7-0.5l1.7-1.2l5.2,1.6l0.8-0.6l-5.1-1.6l0.8-0.6L695.6,723.1L695.6,723.1z"/>
			<path class="st2" d="M685.5,720l-0.8,0.5l1.7,0.5l-2.5,1.7l-1.7-0.5l-0.9,0.6l-4.9-1.6l0.9-0.5l-1.6-0.5l2.6-1.6l1.6,0.5l0.8-0.5
				L685.5,720L685.5,720z M681.4,719.5l-2.6,1.6l1.6,0.5l2.6-1.7L681.4,719.5L681.4,719.5z"/>
			<path class="st2" d="M676,717.1l-0.8,0.5l1.5,0.5l-3.5,2.1l-3.1-1l3.5-2.1l-1.5-0.5l0.9-0.5L676,717.1L676,717.1z M671.5,715.7
				l-0.9,0.5l1.5,0.5l-3.5,2l-3-1l3.6-2l-1.5-0.5l0.9-0.5L671.5,715.7z M667.7,715.3l-3.6,2l-1.5-0.5l3.6-2L667.7,715.3L667.7,715.3
				z"/>
			<path class="st2" d="M700.9,717.3l-3.7,2.6l-9.9-2.9l0.8-0.5l1.6,0.5l3-2l3.2,0.9l-3,2l1.7,0.5l3-2L700.9,717.3L700.9,717.3z
				 M691.2,714.5l-3,2l-1.6-0.5l3-1.9L691.2,714.5L691.2,714.5z"/>
			<path class="st2" d="M686.5,713.2l-0.8,0.5l1.5,0.4l-2.3,1.5l-1.5-0.5l-0.8,0.5l-4.5-1.3l0.8-0.5l3,0.9l0.8-0.5l-3-0.9l-0.8,0.5
				l-1.5-0.4l1.6-0.9l4.5,1.3l0.8-0.5l-4.5-1.3l0.8-0.5L686.5,713.2L686.5,713.2z"/>
			<path class="st2" d="M677.7,710.7l-0.8,0.4l1.4,0.4L676,713l-1.5-0.4l-0.8,0.5l-4.3-1.3l0.8-0.4l-1.4-0.4l2.4-1.3l1.4,0.4
				l0.8-0.4L677.7,710.7L677.7,710.7z M674.1,710.4l-2.4,1.3l1.4,0.4l2.4-1.3L674.1,710.4L674.1,710.4z"/>
			<path class="st2" d="M669.4,708.4l-0.8,0.4l1.4,0.4l-3.3,1.7l-2.7-0.8l3.3-1.7l-1.3-0.4l0.8-0.4L669.4,708.4L669.4,708.4z
				 M665.5,707.3l-0.8,0.4l1.3,0.4l-3.3,1.7L660,709l3.3-1.6l-1.3-0.4l0.8-0.4L665.5,707.3L665.5,707.3z M662.1,707l-3.3,1.6
				l-1.3-0.4l3.4-1.6L662.1,707z"/>
		</g>
		<polygon points="644.4,707 644.6,705 643.3,704.6 643.2,706.1 643.2,707.6 647.2,707.3 651.2,707 650,706.7 		"/>
		<polygon points="632.9,703.5 633.4,701.7 632.2,701.4 632,702.7 631.7,704 635.6,703.8 639.4,703.5 638.3,703.2 		"/>
		<path class="st2" d="M652.4,703.2l-0.6,0.3l2.2,0.6l-2.4,1l-3.2-0.9l2.4-1l-3.4-1l0.6-0.2L652.4,703.2L652.4,703.2z M646,701.5
			l-0.6,0.2l2.1,0.6l-2.4,1l-3-0.9l2.4-1l-3.2-0.9l0.6-0.2L646,701.5L646,701.5z M641.3,700.5l-2.4,1l-2-0.6l2.4-0.9L641.3,700.5
			L641.3,700.5z"/>
	</g>
	<path d="M648.5,793.9c-7.4-14.5,8.5-39.3,29.2-44.2s43.6,7.5,47.3,23.4s-12.2,25.1-32.9,30S655.8,808,648.5,793.9L648.5,793.9z"/>
	<path class="st3" d="M714.4,765.3c-6.3-13.1-37.5-11.5-40.4-10c-3.1,1.5-15,7.9-11.7,9.1c14.7,5.2,29.7,21.7,30.9,31.4
		c0.2,1.8,2.1,3,3.9,2.4C717.6,791,723.5,780.3,714.4,765.3L714.4,765.3z"/>
	<g>
		<path class="st4" d="M671.8,774.7c0.7-0.2,0.4-1.2,0.3-1.6c-2.9-2.2-5.8-4.2-8.2-5.5c-3.1-1.8-7.1-0.9-9.3,2
			c-5.1,6.6-6.1,15.2-2.8,21.5c0.2,0.5,0.5,0.9,0.8,1.4C653.8,788.6,658.3,779.5,671.8,774.7L671.8,774.7z"/>
		<path class="st5" d="M690.5,796.4c-0.2-2.5-2.2-7-4.4-10c-1.8-2.5-4.9-5.6-8.3-8.6c-0.1,0-3,0-4.9,0.3c-8.1,1.3-12.5,6.2-14.5,9.2
			c-1.5,2.2-2.2,5.2-2.5,7.3c0.2,1.5,1.1,2.7,1.5,3.2c6.2,4.7,15.3,5.8,25.6,4.7C686.8,801.9,690.8,800.2,690.5,796.4L690.5,796.4z"
			/>
		<path d="M657.5,797.8C657.6,798,657.7,798,657.5,797.8L657.5,797.8z"/>
		<path d="M677.9,777.8l-5.5-4.8c-0.3-0.2-0.4-0.1-0.3,0.1C674,774.6,676,776.2,677.9,777.8L677.9,777.8L677.9,777.8z"/>
		<path d="M652.5,792.4C652.5,792.4,652.5,792.4,652.5,792.4c-0.3,1,0,2,0.8,2.6l4.1,2.8c0,0,0,0,0,0c0,0-0.1-0.1-0.1-0.1
			C655.5,796.3,653.8,794.5,652.5,792.4L652.5,792.4z"/>
	</g>
	<path class="st6" d="M568.8,814.8c-27.6,0-49.2-7.4-63.2-21.9c-11.3-11.8-13.8-29.5-6.1-44.2l0.5-1c3.8-7.2,7-13.4,4.5-17.8
		c-3.7-6.5-19.8-10.2-49.2-11.4c-48.2-2-77.7-13.6-87.8-34.4c-4.4-9-4.9-19.5-1.6-31.2c3.1-11,8.8-20,12-24.3c1.2-1.7,2.6-4,2.1-5.5
		c-0.8-2.3-6.2-4-11.5-5.7c-12.2-3.8-30.6-9.6-30.1-32.6V472.6h5V585c-0.5,19.3,14.5,24,26.6,27.8c7.1,2.2,13.1,4.1,14.7,8.8
		c0.9,2.8,0,6.1-2.8,10c-9.9,13.7-17.7,34.1-9.9,50.3c9.2,19,37.3,29.6,83.5,31.6c32.5,1.4,48.5,5.5,53.3,13.9
		c3.9,6.8-0.1,14.4-4.4,22.6l-0.5,1c-6.7,12.8-4.6,28.2,5.3,38.4c42,43.6,142.2,3.6,143.2,3.2l1.9,4.6c-0.3,0.1-26.2,10.6-57.2,15.3
		C587.1,814.1,577.6,814.8,568.8,814.8L568.8,814.8z"/>
	<polyline points="646,803.5 652,801.8 649.6,791.3 643.5,793 	"/>
	<ellipse transform="matrix(-0.2231 -0.9748 0.9748 -0.2231 10.5931 1604.832)" cx="644.8" cy="798.2" rx="5.4" ry="3.1"/>
	<ellipse transform="matrix(-0.2231 -0.9748 0.9748 -0.2231 19.6397 1608.5986)" cx="650.8" cy="796.5" rx="5.4" ry="3.1"/>
	<path class="st5" d="M645.5,794.2c1,0.9,2.5,3,1.3,7.3c-0.1,0.4,0.3,0.8,0.7,0.7l3.9-1.2c0.6-0.2,1.1-0.7,1.1-1.4
		c0.1-1.4,0.3-3.9-0.6-5.7c-0.7-1.3-2.3-1.9-3.7-1.5c-1,0.3-1.9,0.6-2.6,0.8C645.2,793.4,645.2,793.9,645.5,794.2L645.5,794.2z"/>
	<ellipse transform="matrix(-0.2231 -0.9748 0.9748 -0.2231 6.4506 1603.0524)" class="st7" cx="642" cy="799" rx="2" ry="1.7"/>
</g>
<g id="Layer_6">
	<path d="M627.2,697.7c0,0,16.2-12.2,33.6-18.6l-32.5-10.7l-50.7-4.9C577.5,663.6,631.2,686.5,627.2,697.7L627.2,697.7z"/>
	<path class="st8" d="M625.6,694.4c0,0,13.1-9.8,27-15l-26.2-8.6l-40.8-3.9C585.6,666.9,628.8,685.3,625.6,694.4L625.6,694.4z"/>
</g>
<g id="Layer_2">
	<g>
		<path d="M557.9,617.4l60.1,84.1l33.7,25.5c0.9,0.7,2.7-0.8,2.3-1.8l-12-34.7L579,607c-2.9-3.7-7.4-5.8-12-5.5
			c-1.5,0.1-3,0.3-4.5,0.6C555.6,603.7,553.8,611.8,557.9,617.4L557.9,617.4z"/>
		<g id="hiVV5a">
			
				<image style="overflow:visible;enable-background:new    ;" width="360" height="360" id="hiVV5a-2" xlink:href="8E99A5F3.png"  transform="matrix(-0.4088 -0.2515 0.1939 -0.3151 645.17 768.02)">
			</image>
		</g>
	</g>
	<path d="M541.5,702.4c-2.8-21.5,12.1-41.2,45.1-45.5c22.8-3,43.6,12,46.5,33.5s-13.4,41.3-36.2,44.3
		C560.3,739.5,544.3,723.9,541.5,702.4L541.5,702.4z"/>
	
		<linearGradient id="SVGID_1_" gradientUnits="userSpaceOnUse" x1="545.7364" y1="142.3095" x2="625.7181" y2="142.3095" gradientTransform="matrix(1 0 0 -1 0 838.5699)">
		<stop  offset="0" style="stop-color:#90C742"/>
		<stop  offset="1" style="stop-color:#E8EA82"/>
	</linearGradient>
	<path class="st9" d="M546,701.8c-2.5-19.4,10.3-37,38.9-40.8c19.8-2.6,37.9,11,40.4,30.4c2.5,19.4-11.4,37.2-31.2,39.8
		C562.5,735.3,548.6,721.1,546,701.8z"/>
	<path d="M620.2,621.1l-31.7-8.3l14.4,22.9l-25.4,11l26.3,11.3l-11.3,22.7l35.8-12.2c0,0,34.3,12.4,45.9,20.7s52.3,11.7,52.3,11.7
		S657.6,737,686.6,769s51.6,25.6,87.2-12.5c35.3-37.9,109.9-86.3,110.1-86.4c0,0-9,13.5-36.1,32s-21.5,46.2-7.3,44
		s74.8-28.5,81.6-93.7c0,0,44-16.8,39.8-37.7s-16.9-40.3-63.5-25l-11.9-5.5c0,0,23.7-10.7,9.3-28.5s-54.2-4.2-54.2-4.2l22.6-35.9
		l-25.1,6c0,0,15.2-39.6-0.9-37.1s-59.3,66-96.6,71.1c-26-2.4-36.8-4.1-55.2-2.7c-13.3-26.2-23.6-70.4-30.4-68.5
		c-6.8,1.8-14.4,25.5-14.4,25.5l-46.3-3.4l20.9,23.7l-29.9,18.6l25.7,10.2l-13.3,31.6l33.4-14.8c0,0-0.5,5.9-0.1,9
		c0,0-9.6,17.6-9.6,28.3C622,621.6,620.2,621.1,620.2,621.1L620.2,621.1z"/>
</g>
<g id="Layer_3">
	
		<linearGradient id="SVGID_2_" gradientUnits="userSpaceOnUse" x1="584.9698" y1="230.4368" x2="839.4825" y2="230.4368" gradientTransform="matrix(1 0 0 -1 0 838.5699)">
		<stop  offset="0" style="stop-color:#90C742"/>
		<stop  offset="1" style="stop-color:#E8EA82"/>
	</linearGradient>
	<path class="st10" d="M655.9,571.7c0,0,46.7-25,108.6-5.7c0,0-4.6-4.4-1.2-7.1s73.5-76.5,75.8-68.6s-5.2,32.7-5.2,32.7l-4.2,1.6
		l0.6-15.3c0,0-54.2,46.7-54.2,51.3s18.5,1.2,18.5,1.2l9.3,35.1l4.3-5.5c0.3-0.5,0.5,1.1,0.5,2c0.7,10.8-5.8,45.4-17.5,68.9
		c0,0,4.2-0.2,5.7-4.2l16.2,12.2l-22.6,10.9l11.3,19.6l-37.3,1.9l-6,23.7l-12.7-28.7c0,0,11.5-1.8,15.7-7c0,0-55.4,13-84.5-4.5
		c-29.1-17.5-50.1-15.7-53.1-30.9c0,0-1.3,4.7,2,9.6L597,676.5l14.1-21.1l-26.1-7.6l24.7-9l-11-19.3l22.9,5.2
		c-0.4,3.3-0.4,5.3-0.2,8.1c0.1,1.3,1.1,1.7,1.2,0.4c0.4-3.7,0.3-8.4,2.1-13.1c3.1-1.4-1.9-11.7,8.3-31.7c0,0,1.3,3.2,2,3.2
		c0,0,2.8-71.9,18.2-97.3c1.4-2.3,3.5,0.2,4.6,2.7c6.7,14.2,24.1,53.2,18.6,58.6C669.6,562.3,660.2,565.6,655.9,571.7L655.9,571.7z"
		/>
	
		<linearGradient id="SVGID_3_" gradientUnits="userSpaceOnUse" x1="686.3986" y1="173.2268" x2="951.1827" y2="173.2268" gradientTransform="matrix(1 0 0 -1 0 838.5699)">
		<stop  offset="0" style="stop-color:#90C742"/>
		<stop  offset="1" style="stop-color:#E8EA82"/>
	</linearGradient>
	<path class="st11" d="M688.6,761c0,0-17.9-29.4,48.8-57.9c0,0,22.4,35.8,22.4,37l10.7-33.3l41.4-0.8l-14-22.1l26.3-13.8l-25.6-16.3
		c0,0,11.7-23.9,13.8-66.5l7.3-17.2h36.5l-8.3-12.6c0,0,27.4-11.4,37.3,4.5s-9.4,18.1-9.4,18.1l-7.5-3.8c0,0-3.6,0.8,13.2,10.2
		s16.9,8.5,16.9,8.5s49.3-13.7,52.7,21.3c1.5,12.7-16,24.8-24,28.1c-2.8,1.2-3.5-4.6-4.9-7.3c-6.3-11.9-24.8-43.3-57.8-57
		c-9-3.8-17.3-2.5-17.3-2.5s14.8,0.9,28.9,12s39.3,31.2,43.2,51.8c1.5,7.8,3.7,50-49.5,87.1c-42,29.5-41.8-6-26.5-17.5
		c14.1-11.9,51.1-33.6,51.4-63.3s-32-59.1-53.8-62c-9.9-1.1,2.1,2.9,13.7,9.2c10.6,5.7,38.4,29.6,34.4,56.6c-0.7,4.6-3.2,8.7-7,11.5
		c-12,8.8-42.9,31.7-57.3,42.3c-18.1,13.3-38.7,30.8-58.5,50.5S709.6,789.5,688.6,761L688.6,761z"/>
	<ellipse transform="matrix(-0.1168 -0.9932 0.9932 -0.1168 95.1916 1416.0911)" cx="677.2" cy="665.7" rx="2" ry="3.6"/>
	<path class="st12" d="M796.5,558.5c0,0-14.7,1.9-13.2-0.4s43.3-40.3,43.3-40.3v9.6l30.5-7.2L834.5,548l12.2,16.2h-27.8l-14.8,28
		L796.5,558.5L796.5,558.5z"/>
	<path class="st12" d="M604.8,511l35.9,2.4c0,0-9.1,46.4-8.4,59.8L603.8,585l13.8-27.9l-23.3-8.8l26.1-17.1L604.8,511L604.8,511z"/>
	<ellipse cx="340.7" cy="464.4" rx="9.2" ry="2.4"/>
	<ellipse cx="340.7" cy="472.6" rx="9.2" ry="3"/>
	<polyline points="331.5,472.6 331.5,464.4 349.9,464.4 349.9,472.6 	"/>
	<path class="st8" d="M803.8,596.9l4.3-5.5c0.3-0.5,0.5,1.1,0.5,2"/>
	<path d="M419.5,475.6h128.1c18.2,0,32.9,14.7,32.9,32.9v52.8c0,18.2-14.7,32.9-32.9,32.9H419.5c-18.2,0-32.9-14.7-32.9-32.9v-52.8
		C386.6,490.4,401.3,475.6,419.5,475.6z"/>
	<path class="st0" d="M426.7,479.9h115c18.2,0,32.9,14.7,32.9,32.9v40.7c0,18.2-14.7,32.9-32.9,32.9h-115
		c-18.2,0-32.9-14.7-32.9-32.9v-40.7C393.8,494.6,408.5,479.9,426.7,479.9z"/>
	<g>
		<path class="st2" d="M404.2,517.2v-1.5h-1.5v-1.5h3v1.5h3v-4.5h-1.5v-1.5h-3v-1.5h-1.5v-4.5h1.5v-1.5h6v1.5h1.5v1.5h-3v-1.5h-3v3
			h1.5v1.5h3v1.5h1.5v6h-1.5v1.5H404.2z"/>
		<path class="st2" d="M413.2,517.2v-1.5h1.5v-12h-1.5v-1.5h6v1.5h-1.5v12h1.5v1.5H413.2z"/>
		<path class="st2" d="M422.2,517.2v-1.5h-1.5v-12h1.5v-1.5h6v1.5h1.5v1.5h-3v-1.5h-3v12h3v-4.5h-1.5v-1.5h4.5v6h-1.5v1.5H422.2z"/>
		<path class="st2" d="M431.2,517.2v-15h3v1.5h1.5v3h1.5v3h1.5v-7.5h3v15h-3v-3h-1.5v-3h-1.5v-3h-1.5v9H431.2z"/>
		<path class="st2" d="M447.7,517.2v-15h3v1.5h1.5v1.5h1.5v1.5h1.5v-1.5h1.5v-1.5h1.5v-1.5h3v15h-3v-9h-1.5v1.5h-1.5v1.5h-1.5v-1.5
			h-1.5v-1.5h-1.5v9H447.7z"/>
		<path class="st2" d="M465.7,517.2v-6h-1.5v-1.5h-1.5v-7.5h3v6h3v-6h3v7.5h-1.5v1.5h-1.5v6H465.7z"/>
		<path class="st13" d="M411.5,546.3c-2.5,0-4.5-0.7-5.8-2.1c-1.3-1.4-1.9-3.4-1.9-6c0-1.8,0.3-3.3,1-4.5s1.6-2.2,2.8-2.8
			c1.2-0.6,2.5-1,4-1c0.9,0,1.6,0.1,2.1,0.2c0.5,0.1,0.9,0.3,1.2,0.4c0.3,0.1,0.5,0.2,0.7,0.2c0.2,0,0.4-0.1,0.5-0.2
			c0.1-0.2,0.2-0.4,0.4-0.6h0.7v5.5h-0.8c-0.3-1.6-0.8-2.7-1.6-3.4c-0.8-0.7-1.9-1-3.1-1c-1.7,0-3,0.6-4,1.9s-1.4,2.9-1.4,5
			c0,2.5,0.5,4.3,1.5,5.5s2.3,1.8,4,1.8c0.8,0,1.4-0.1,1.9-0.3c0.5-0.2,1-0.5,1.5-0.9v-2.6c0-0.6-0.1-1-0.1-1.3
			c-0.1-0.3-0.3-0.5-0.6-0.6c-0.3-0.1-0.8-0.2-1.4-0.2v-0.8h5.9v0.8c-0.7,0-1.1,0.1-1.3,0.3c-0.2,0.2-0.3,0.7-0.3,1.5v3.5
			c-0.9,0.5-1.7,0.9-2.6,1.2S412.9,546.3,411.5,546.3L411.5,546.3z"/>
		<path class="st13" d="M428.9,546.3c-2.1,0-3.7-0.5-4.7-1.5c-1-1-1.5-2.6-1.5-4.8v-6.9c0-0.6-0.1-1-0.2-1.3
			c-0.1-0.3-0.4-0.5-0.7-0.6s-0.8-0.2-1.5-0.2v-0.7h6.9v0.7c-0.7,0-1.2,0.1-1.5,0.2s-0.6,0.3-0.7,0.7c-0.1,0.3-0.2,0.8-0.2,1.4v6.8
			c0,1,0.1,1.9,0.4,2.6s0.7,1.3,1.4,1.6s1.6,0.5,2.7,0.5c1.6,0,2.7-0.4,3.4-1.1c0.7-0.7,1-1.9,1-3.6v-6c0-0.8,0-1.5-0.1-1.9
			c-0.1-0.4-0.3-0.7-0.6-0.9c-0.3-0.2-0.8-0.2-1.5-0.2v-0.7h5.9v0.7c-0.7,0-1.2,0.1-1.5,0.2s-0.5,0.5-0.6,0.9
			c-0.1,0.4-0.1,1-0.1,1.9v5.8c0,2.2-0.5,3.8-1.5,4.9S431.2,546.3,428.9,546.3L428.9,546.3z"/>
		<path class="st13" d="M451.7,546h-12.8v-0.7c0.7,0,1.1,0,1.5-0.1s0.5-0.3,0.7-0.6c0.1-0.3,0.2-0.8,0.2-1.4v-10
			c0-0.6-0.1-1.1-0.2-1.4s-0.3-0.5-0.7-0.7s-0.8-0.2-1.5-0.2v-0.7h12.6l0.1,3.9h-0.8c-0.1-0.8-0.3-1.4-0.5-1.8
			c-0.2-0.4-0.6-0.7-1.1-0.8c-0.5-0.1-1.3-0.2-2.3-0.2h-3.5v6.1h2.8c0.7,0,1.3-0.1,1.7-0.2s0.6-0.4,0.8-0.7s0.2-0.8,0.2-1.5h0.8v5.6
			h-0.8c0-0.7-0.1-1.1-0.2-1.5s-0.4-0.5-0.8-0.6c-0.4-0.1-0.9-0.1-1.7-0.1h-2.8v6.6h3.1c0.9,0,1.7,0,2.2-0.1c0.6-0.1,1-0.3,1.3-0.5
			c0.3-0.2,0.6-0.6,0.8-1s0.4-1,0.7-1.8h0.8L451.7,546L451.7,546z"/>
		<path class="st13" d="M454.8,546.4h-0.7l-0.2-5.2h0.7c0.3,1.1,0.6,2,1,2.5c0.4,0.6,0.9,1,1.4,1.2c0.6,0.2,1.3,0.3,2.1,0.3
			c0.6,0,1.1-0.1,1.6-0.3s0.8-0.4,1-0.8c0.2-0.4,0.4-0.9,0.4-1.5c0-0.7-0.2-1.3-0.6-1.8c-0.4-0.5-0.9-0.9-1.5-1.2s-1.2-0.7-1.9-1.1
			c-0.6-0.4-1.3-0.8-1.9-1.2s-1.1-0.9-1.5-1.5c-0.4-0.6-0.6-1.3-0.6-2.1s0.2-1.6,0.6-2.1c0.4-0.6,1-1,1.7-1.3
			c0.7-0.3,1.5-0.5,2.3-0.5c0.7,0,1.3,0.1,1.7,0.2s0.7,0.2,1,0.4s0.4,0.2,0.6,0.2s0.4,0,0.5-0.2c0.1-0.1,0.2-0.3,0.3-0.5h0.6
			l0.2,4.8h-0.7c-0.3-1.3-0.8-2.3-1.3-3s-1.5-1-2.7-0.9c-0.8,0-1.5,0.2-1.9,0.6c-0.5,0.4-0.7,0.9-0.7,1.7c0,0.6,0.2,1.1,0.5,1.5
			c0.3,0.4,0.8,0.8,1.3,1.1s1.1,0.7,1.7,1c0.5,0.3,1.1,0.6,1.6,0.9s1,0.7,1.5,1s0.8,0.8,1.1,1.3c0.3,0.5,0.4,1.1,0.4,1.8
			c0,0.9-0.2,1.7-0.6,2.3c-0.4,0.6-1,1.1-1.7,1.5s-1.6,0.5-2.5,0.5c-0.8,0-1.5-0.1-2-0.2s-0.9-0.2-1.2-0.4c-0.3-0.1-0.5-0.2-0.7-0.2
			c-0.2,0-0.3,0.1-0.4,0.2C454.9,545.9,454.8,546.1,454.8,546.4L454.8,546.4z"/>
		<path class="st13" d="M475.6,546h-7v-0.7c0.7,0,1.2,0,1.5-0.2c0.3-0.1,0.6-0.3,0.7-0.7c0.1-0.3,0.2-0.9,0.2-1.6v-11.5h-1.5
			c-0.9,0-1.5,0.1-2,0.3c-0.4,0.2-0.8,0.5-1,1s-0.4,1.1-0.5,2h-0.7l0.3-4.3h13.3l0.2,4.3h-0.7c-0.2-0.9-0.4-1.5-0.5-2
			s-0.5-0.8-0.9-1s-1.1-0.3-2-0.3h-1.5v11.5c0,0.7,0.1,1.3,0.2,1.6c0.1,0.3,0.3,0.6,0.7,0.7c0.3,0.1,0.9,0.2,1.5,0.2L475.6,546
			L475.6,546z"/>
		<path class="st13" d="M487.6,546h-7.4v-0.7c0.7,0,1.1-0.1,1.5-0.2s0.5-0.3,0.7-0.7c0.1-0.3,0.2-0.8,0.2-1.5v-9.8
			c0-0.6-0.1-1.1-0.2-1.4s-0.3-0.5-0.7-0.6c-0.3-0.1-0.8-0.1-1.5-0.1v-0.7h6.5c1.4,0,2.6,0.2,3.4,0.4c0.9,0.3,1.5,0.7,1.9,1.3
			c0.4,0.5,0.6,1.2,0.6,2c0,1.1-0.3,1.9-1,2.4c-0.6,0.5-1.5,0.9-2.5,1.2v0.1c0.7,0.1,1.4,0.3,2,0.6s1.2,0.7,1.6,1.3
			c0.4,0.5,0.6,1.3,0.6,2.2c0,1.4-0.5,2.4-1.5,3.1C490.8,545.7,489.4,546,487.6,546L487.6,546z M484.7,531.3v6.1h1.6
			c1.5,0,2.5-0.3,3-0.8c0.5-0.5,0.8-1.3,0.8-2.4c0-0.9-0.3-1.7-0.9-2.2s-1.6-0.8-3.1-0.8c-0.2,0-0.5,0-0.7,0
			C485.2,531.2,485,531.3,484.7,531.3L484.7,531.3z M486.5,545.2c0.5,0,1,0,1.5-0.1c0.5-0.1,1-0.2,1.4-0.4s0.8-0.5,1-1
			s0.4-1,0.4-1.8c0-0.9-0.2-1.6-0.6-2.1s-1-0.9-1.6-1.1s-1.4-0.3-2.1-0.3h-1.7v6.7c0.3,0,0.6,0,0.9,0
			C485.9,545.2,486.2,545.2,486.5,545.2L486.5,545.2z"/>
		<path class="st13" d="M503,546.3c-1.6,0-3-0.3-4.1-1c-1.1-0.7-2-1.6-2.6-2.8c-0.6-1.2-0.9-2.7-0.9-4.4s0.3-3.1,0.9-4.3
			c0.6-1.2,1.5-2.2,2.6-2.9s2.5-1,4.1-1s3,0.3,4.1,1c1.1,0.7,2,1.6,2.6,2.8s0.9,2.6,0.9,4.2c0,1.7-0.3,3.2-0.9,4.4
			c-0.6,1.3-1.5,2.2-2.6,2.9S504.6,546.3,503,546.3z M503,545.3c1.7,0,3-0.6,3.8-1.8s1.3-3.1,1.3-5.5c0-1.4-0.2-2.7-0.6-3.7
			s-1-1.9-1.8-2.4c-0.8-0.6-1.7-0.8-2.7-0.8c-1.5,0-2.8,0.6-3.7,1.9c-0.9,1.2-1.4,3-1.4,5.2s0.4,4,1.3,5.3
			C500,544.7,501.3,545.3,503,545.3L503,545.3z"/>
		<path class="st13" d="M520.7,546.3c-1.6,0-2.9-0.3-4.1-1c-1.1-0.7-2-1.6-2.6-2.8c-0.6-1.2-0.9-2.7-0.9-4.4s0.3-3.1,0.9-4.3
			c0.6-1.2,1.5-2.2,2.6-2.9s2.5-1,4.1-1c1.6,0,3,0.3,4.1,1c1.1,0.7,2,1.6,2.6,2.8s0.9,2.6,0.9,4.2c0,1.7-0.3,3.2-0.9,4.4
			c-0.6,1.3-1.5,2.2-2.6,2.9S522.3,546.3,520.7,546.3z M520.7,545.3c1.7,0,3-0.6,3.8-1.8c0.8-1.2,1.3-3.1,1.3-5.5
			c0-1.4-0.2-2.7-0.6-3.7s-1-1.9-1.8-2.4c-0.8-0.6-1.7-0.8-2.7-0.8c-1.6,0-2.8,0.6-3.7,1.9c-0.9,1.2-1.4,3-1.4,5.2s0.4,4,1.3,5.3
			C517.7,544.7,519,545.3,520.7,545.3L520.7,545.3z"/>
		<path class="st13" d="M537.3,546h-6.9v-0.7c0.7,0,1.3-0.1,1.6-0.2c0.3-0.1,0.5-0.3,0.6-0.7c0.1-0.3,0.1-0.9,0.1-1.6v-9.5
			c0-0.6,0-1.1-0.1-1.5c-0.1-0.4-0.3-0.6-0.6-0.8c-0.3-0.1-0.9-0.2-1.6-0.2v-0.7h6.9v0.7c-0.8,0-1.3,0.1-1.6,0.2
			c-0.3,0.1-0.5,0.4-0.6,0.8c-0.1,0.4-0.1,0.8-0.1,1.5v4.5h0.1l3.9-3.8c0.6-0.5,1-1,1.3-1.3c0.3-0.4,0.4-0.7,0.4-1.1
			c0-0.3-0.1-0.4-0.2-0.6s-0.4-0.2-0.7-0.2h-0.4v-0.7h5.9v0.7c-0.5,0-0.8,0.1-1.1,0.2s-0.6,0.3-0.9,0.5c-0.3,0.2-0.7,0.5-1.1,1
			l-5.2,4.9l6.9,6.8c0.4,0.4,0.8,0.6,1.1,0.8s0.8,0.2,1.4,0.2v0.7h-6.9v-0.7h0.5c0.3,0,0.6,0,0.7-0.1s0.2-0.2,0.2-0.4
			c0-0.3-0.1-0.6-0.4-0.9c-0.2-0.3-0.6-0.8-1.1-1.3s-1.2-1.2-2-2l-2.1-2.1h-0.2v4.3c0,0.7,0,1.2,0.1,1.5c0.1,0.3,0.3,0.6,0.6,0.7
			c0.3,0.1,0.9,0.2,1.6,0.2L537.3,546L537.3,546z"/>
		<path class="st2" d="M547.7,544.8c0-0.9,0.6-1.5,1.4-1.5c0.9,0,1.4,0.6,1.4,1.5s-0.5,1.5-1.4,1.5
			C548.3,546.3,547.7,545.7,547.7,544.8z M548.3,541.4l-0.3-11.5h2.3l-0.3,11.5H548.3L548.3,541.4z"/>
		<path class="st2" d="M553.3,544.8c0-0.9,0.6-1.5,1.4-1.5c0.9,0,1.4,0.6,1.4,1.5s-0.5,1.5-1.4,1.5
			C553.8,546.3,553.3,545.7,553.3,544.8z M553.9,541.4l-0.3-11.5h2.3l-0.3,11.5H553.9L553.9,541.4z"/>
		<path class="st2" d="M558.8,544.8c0-0.9,0.6-1.5,1.4-1.5c0.9,0,1.4,0.6,1.4,1.5s-0.5,1.5-1.4,1.5S558.8,545.7,558.8,544.8z
			 M559.4,541.4l-0.3-11.5h2.3l-0.3,11.5H559.4L559.4,541.4z"/>
	</g>
	<g>
		<path class="st14" d="M529.4,568.3c0.3,0,0.2-0.4,0.2-0.5C529.2,567.9,529.4,568.4,529.4,568.3z"/>
		<polygon class="st14" points="524.8,569.3 524.9,569.1 524.2,569.5 		"/>
		<path class="st14" d="M520.5,569.2c0.4,0.7,1.5-0.1,2.3,0.1l0.1,0.2l0.3-0.6C522.4,569.1,521.2,569.4,520.5,569.2z"/>
		<path class="st14" d="M518.2,567.7c0.1,0.3-0.5,0.2,0.5,0.1c-0.1,0-0.1,0-0.1-0.1C518.6,567.7,518.4,567.7,518.2,567.7
			L518.2,567.7z"/>
		<path class="st14" d="M518.7,567.7C519.1,567.7,518.4,567.5,518.7,567.7L518.7,567.7z"/>
		<path class="st14" d="M516.6,567.9l0.6-0.3c-0.1-0.2-0.6-0.2-0.5-0.3C516.1,567.5,516.2,567.6,516.6,567.9L516.6,567.9z"/>
		<path class="st14" d="M516,568.4l0.3-0.1C516.3,568.2,516.2,568.2,516,568.4z"/>
		<path class="st14" d="M517,568.1l-0.7,0.2c0.1,0.1,0.1,0.3,0.3-0.1C516.6,568.4,516.7,568.2,517,568.1L517,568.1z"/>
		<path class="st14" d="M517.4,568.2c0.3,0.2,0.8,0.3,0.2,0.5C518.7,568.6,518.5,568.1,517.4,568.2z"/>
		<path class="st14" d="M520.3,570l0.5,0.2l0.4-0.2C521,570.1,520.3,569.8,520.3,570L520.3,570z"/>
		<path class="st14" d="M512.9,567.5c0,0.2,0.2,0.4,0.2,0.6l0.4-0.2C513.3,567.8,512.9,567.7,512.9,567.5L512.9,567.5z"/>
		<path class="st14" d="M513.1,568.1l-0.7,0.3C513.1,568.4,513.2,568.3,513.1,568.1z"/>
		<polygon class="st14" points="515.9,569.2 517,568.6 515.7,569.2 		"/>
		<polygon class="st14" points="510.4,567.5 510.8,567.1 510.1,567.7 		"/>
		<path class="st14" d="M508.7,567.6c0.3-0.3-0.4-0.5-0.1-0.7c-0.5,0-0.8,0.3-1.2,0.5C507.8,567.3,508.2,567.3,508.7,567.6
			L508.7,567.6z"/>
		<path class="st14" d="M506.9,567.7c0.2-0.1,0.4-0.2,0.6-0.3C507.2,567.5,507.1,567.6,506.9,567.7z"/>
		<path class="st14" d="M511.4,568.3c0-0.1-0.1-0.3-0.5-0.4l0.3,0.4C511.2,568.3,511.3,568.3,511.4,568.3L511.4,568.3z"/>
		<path class="st14" d="M511.1,568.3L511.1,568.3c-0.3,0-0.5,0-0.6,0C510.6,568.3,510.8,568.3,511.1,568.3L511.1,568.3z"/>
		<path class="st14" d="M511.4,568.3C511.4,568.3,511.4,568.3,511.4,568.3C511.4,568.3,511.4,568.4,511.4,568.3z"/>
		<path class="st14" d="M514.2,568.8c-0.4,0.2-1.2,0.5-0.4,0.9C514.1,569.4,513.6,569.2,514.2,568.8z"/>
		<path class="st14" d="M511.8,568.8l0.7,0.1c0-0.1-0.1-0.3,0-0.4L511.8,568.8L511.8,568.8z"/>
		<polygon class="st14" points="511.4,569 511.8,568.8 511.5,568.8 		"/>
		<path class="st14" d="M508.1,568.1c-0.3,0.2-0.6,0.2-1,0.2c0.4,0.1,0.8,0.1,1.2,0.1C508.3,568.4,508.5,568.1,508.1,568.1z"/>
		<path class="st14" d="M509.5,568.3C509.5,568.3,509.5,568.3,509.5,568.3C509.5,568.3,509.5,568.3,509.5,568.3z"/>
		<polygon class="st14" points="503.4,568.4 503.5,568.4 503.5,568.4 		"/>
		<path class="st14" d="M508.3,568.6c0.3,0.1,0.5,0,0.6-0.2C508.8,568.5,508.5,568.5,508.3,568.6
			C508.2,568.6,508.2,568.6,508.3,568.6z"/>
		<path class="st14" d="M505.8,567.9c0.2,0.1,0.3,0.2,0.5,0.2C506.2,568,505.9,567.8,505.8,567.9z"/>
		<path class="st14" d="M509.4,568.2C509.4,568.2,509.4,568.2,509.4,568.2C509.3,568.1,509.3,568.1,509.4,568.2z"/>
		<path class="st14" d="M509.4,568.2c-0.1,0.1-0.3,0.2-0.4,0.3c0.2,0,0.4-0.1,0.5-0.1C509.4,568.3,509.4,568.2,509.4,568.2z"/>
		<path class="st14" d="M502.3,571.1c0-0.4,0.8-0.8,1.5-0.3c0.7-0.3,0.2-1.6-0.4-2.3c0,0.2,0,0.3-0.7,0.6c0.2,0.2,1.5,0.5,1,0.9
			c-0.9,0.2-0.8-0.1-1.2-0.3c0.4,0.5-1.2,0.7-1,1.4l0.8-0.3C502.4,570.8,502.1,571,502.3,571.1L502.3,571.1z"/>
		<path class="st14" d="M504.8,568.5l0.3,0c-0.3-0.1-0.5-0.2-1-0.5c-0.5,0.2-0.6,0.3-0.6,0.5L504.8,568.5L504.8,568.5L504.8,568.5z"
			/>
		<path class="st14" d="M506.3,568.4c-0.2,0.4-0.9,0.6-0.5,1.1c0.8,0,0.6-0.4,1.1-0.5C505.6,569.1,507.3,568.7,506.3,568.4
			c0.3,0,0.5,0,0.7-0.1c-0.2,0-0.5-0.1-0.7-0.2l0,0l0,0l0,0c0.1,0,0.1,0.1,0,0.1c0,0,0,0,0,0C506.4,568.3,506.4,568.4,506.3,568.4
			c-0.4-0.1-0.1-0.1,0.1-0.2c0,0,0,0,0-0.1l0,0l-1.4,0.2C505.3,568.5,505.7,568.5,506.3,568.4L506.3,568.4z"/>
		<path class="st14" d="M513.1,570.6C513.1,570.6,513,570.5,513.1,570.6C512.9,570.5,512.9,570.6,513.1,570.6z"/>
		<path class="st14" d="M512.5,570.3c0.1-0.1,0.2-0.2,0.5-0.2c0.3,0.1,0,0.2,0,0.3c0.2-0.1,0.7-0.3,0.1-0.5L513,570
			c-0.5-0.2-1.2-0.7-1.1-0.7C512,569.7,512.2,570,512.5,570.3L512.5,570.3z"/>
		<path class="st14" d="M509.4,569.5l-1.1,0.2l0.6,0.4l0-0.2C509.4,570,509.3,569.7,509.4,569.5L509.4,569.5z"/>
		<polygon class="st14" points="503.3,568.2 503.4,567.7 502.8,568.3 		"/>
		<polygon class="st14" points="501.8,568.2 501.9,567.8 501.5,568 		"/>
		<path class="st14" d="M488.1,559.9l-0.4,0.1C487.9,560,488,559.9,488.1,559.9z"/>
		<path class="st14" d="M488.9,559.9l0.6-0.2C489.1,559.8,488.9,559.8,488.9,559.9z"/>
		<path class="st14" d="M486.2,567.8c2-0.3,4.8-0.7,2.7-0.4l-2.1,0.3C487,567.7,486.7,567.7,486.2,567.8z"/>
		<path class="st14" d="M496.6,561.4c-0.2,0-0.4,0-0.5,0c0.4,0,0.7,0.1,0.9,0.1C496.9,561.5,496.8,561.5,496.6,561.4L496.6,561.4z"
			/>
		<path class="st14" d="M491.2,561.4l1.3-0.1C492.1,561.3,491.7,561.4,491.2,561.4z"/>
		<path class="st14" d="M480.4,560.6l-0.4,0.5C480.6,561.1,480.3,560.9,480.4,560.6z"/>
		<path class="st14" d="M490.6,568.4c0.1-0.2,0.1-0.2,0.1-0.3C490.4,568.4,490,568.7,490.6,568.4z"/>
		<path class="st14" d="M499.7,554.6c-0.4,0.1-0.7,0.2-0.9,0.3C499.2,554.8,499.5,554.7,499.7,554.6z"/>
		<path class="st14" d="M490.4,568.1c-0.1,0-0.1,0.1-0.1,0.1c0.3-0.1,0.5-0.1,0.5-0.1C491,567.9,491.1,567.8,490.4,568.1z"/>
		<path class="st14" d="M433,559.7c0,0-0.1,0-0.1-0.1C432.9,559.7,432.9,559.7,433,559.7z"/>
		<path class="st14" d="M419.5,554.6c0.1,0,0.4,0,0.6,0C419.9,554.6,419.8,554.6,419.5,554.6z"/>
		<path class="st14" d="M496,568C496.3,568,496,568,496,568L496,568z"/>
		<path class="st14" d="M497.5,569.7c-0.1,0-0.1,0.1-0.1,0.2C497.4,569.9,497.4,569.8,497.5,569.7z"/>
		<path class="st14" d="M481.4,570.8L481.4,570.8C481.2,570.9,481.3,570.9,481.4,570.8z"/>
		<path class="st14" d="M496.4,568.2c-0.1,0-0.3-0.1-0.4-0.1C496.1,568.1,496.2,568.2,496.4,568.2z"/>
		<path class="st14" d="M496.4,568c0.1,0,0.2,0,0.3,0C496.7,568,496.6,567.9,496.4,568z"/>
		<path class="st14" d="M495.5,568c0.2,0,0.3,0,0.5,0c-0.1,0-0.1,0-0.1-0.1C495.9,568,495.7,568,495.5,568L495.5,568z"/>
		<path class="st14" d="M458.4,559.2C458.4,559.2,458.3,559.2,458.4,559.2C458,559.4,458.1,559.3,458.4,559.2z"/>
		<path class="st14" d="M475.7,566.7C475.7,566.7,475.7,566.7,475.7,566.7c0,0,0.1,0,0.1,0H475.7L475.7,566.7z"/>
		<path class="st14" d="M477.1,565.8c0.3,0.5-0.3,0.6-1.3,0.8c1.4,0,2.8-0.1,4-0.1C478.7,566.4,477.8,566.1,477.1,565.8L477.1,565.8
			z"/>
		<path class="st14" d="M485.7,560.1c0,0.1,0,0.3-0.1,0.4c-0.9,0.7-0.6,0.5-1,1c0.5-0.7,0.7-0.8,0.9-0.8s0.4-0.1,1.5-0.8
			c-0.1,0.1-0.1,0.2-0.3,0.3c0,0-0.2,0.1-0.2,0.1c-0.4,0.3,0,0.1,0.7-0.3c0.6-0.3,1.4-0.7,1.6-0.7c0,0.1-0.3,0.3-0.8,0.5l0.3-0.1
			l0.9-0.3c0.1,0-0.6,0.3-0.6,0.3l0.9-0.2l-0.1,0c0.7-0.3,1.9-0.7,2.5-0.8c-0.4,0.2-0.6,0.2-1,0.4l1.5-0.4c-1,0.4-2.4,0.8-2.5,0.8
			c-1.9,0.8-1.6,0.7-1,0.5c0.6-0.2,1.6-0.5,0.5,0l-0.9,0.2c-0.8,0.3-1.3,0.5-1.9,0.7c-0.3,0.1-0.4,0.2-1.4,0.5
			c0.5-0.2,1.6-0.5,2.7-0.9c1.1-0.4,2.2-0.8,3-1c-0.3,0.1-0.4,0.2,1-0.2c-1.9,0.6-1.3,0.4-0.9,0.4l-2.8,0.8c2-0.6,2.4-0.7,3.8-1.1
			c0,0-0.1,0.1-0.4,0.1c-0.4,0.1-0.7,0.2-1,0.3c-1,0.3-2,0.6-2.9,0.8c-0.2,0.1,0.8-0.2,1.9-0.5c1.1-0.3,2.2-0.7,2.8-0.7
			c-0.4,0.2-0.3,0.3,0.2,0.3c0.6,0.1,1.3,0.1,2.2,0.2c-1.4,0.4-2,0.3-3,0.5l2.4-0.2c-0.1,0-0.9,0.1-1.3,0.2c0.8,0,3.2-0.4,3.6-0.4
			c1.6-0.2,0.1,0.1-1.3,0.3c-1.4,0.2-2.6,0.4-1.2,0.3c-0.9,0.1-1.6,0.1-2.6,0.2c0.8,0,1,0,1.4,0c0.3,0,0.8,0,1.7,0.1l-2,0.3
			c1-0.1,1.9-0.1,2.6-0.1c0.7,0,1.2,0.1,1.6,0.2c1-0.1,1.6-0.2,2-0.2c-0.1,0.1-0.1,0.3-0.2,0.5c-0.4,0.1-0.9,0-1.5-0.1
			c0.1,0,0.1,0.1,0.2,0.1c-1,0.2-1.9,0-2.7-0.1c0.5,0,1.1-0.1,1.6-0.1c-0.9-0.1-2.1-0.1-3.4-0.1c0.2,0,0.3,0,0.3,0.1
			c-0.3,0-0.5,0-0.8,0c-0.2,0,0.1,0,0.5,0.1l-2.3,0l0.8,0l-1,0.1l-0.5,0c-0.2,0-0.1,0-0.2-0.1c1.1,0,2.1,0.1,2.4,0.4
			c0.3,0.3,0,0.8-0.9,1.2c0.3-0.6-0.2-0.8-0.4-1.4c0.3,0.3,0.9,0,0.6-0.1c0-0.1-0.4-0.2-0.4-0.2c0-0.1-0.4-0.3-0.6-0.3
			c0.3,0,0.5,0,0.6,0.1c0.1,0,0.1,0.1,0.2,0.1c0,0,0,0,0.1,0.1l-0.2,0.1c-0.1-0.5-0.5-0.2-1-0.3c0.6,0.8-1,1-1.5,1.6
			c-0.1-0.3-0.1-0.7,0.7-0.9c-1.1-0.4-0.8,1.5-1.8,1.2c0.2-0.1,0.3-0.1,0.3-0.3c-0.4,0.4-1.5,0.6-1.4,0.2l0.2-0.1
			c-0.2,0-0.4,0.1-0.5,0.2c-0.3,0.1-0.5,0.2-0.8,0.3c-0.8,0.3-1.7,0.6-2.4,0.9c-1.5,0.6-2.2,1.2-1.5,1.3c-0.3,0-1.8-0.5-1.9-0.6
			c0.2,0.9,1.6,1.5,4.2,1.6c-1.1,0-3.1,0-5,0.1c-0.9,0-1.8,0-2.4,0c-0.6,0-0.9-0.1-0.6-0.3c-0.5,0.1-1,0.2-1.5,0.4
			c-0.4,0.1-0.7,0.3-0.7,0.4c0.7-0.1,4.2-0.3,4.1-0.2c-1.8,0.2-2.4,0.3-3,0.4c-0.6,0.1-1.2,0.2-3.1,0.5c0.5-0.1,1.7-0.2,2.6-0.2
			s1.8,0,1.4,0.1c-0.6,0-4.4,0.3-4.6,0.3c0.8,0.1,1.7,0.2,2.8,0.2c-0.5-0.1-3.8,0.3-5.6,0.6c1.1-0.2-1.7,0.6-1.8,0.7l2-0.4
			c-1.4,0.4-0.1,0.4,1.4,0.3c1.5-0.1,3.2-0.2,2.4,0c-1,0.1-6.7,0.8-8.5,1.3c1.3-0.1,4.4-0.5,7.6-0.9c3.2-0.4,6.5-0.8,7.4-0.9
			l-2.1,0.4h0l2.8-0.4c-1.7,0.3-4.1,0.7-6.9,1.1c-2.3,0.3-4.5,0.6-6.4,0.8c-1.9,0.2-3.3,0.3-4.2,0.4c-2.2,0.5-2.3,0.4-3.4,0.8
			c-2.2,0.4-1.9,0.2-1.6,0l-4.3,1.3c0.8-0.1,1.3-0.2,1.6-0.2c2.8-0.4,4.9-0.5,7.4-0.9l-4.4,0.4c-0.1,0-0.3-0.1-0.4-0.2
			c2.1-0.3,4.4-0.6,6.1-0.8c2.8-0.4,5-0.6,5.4-0.6c-0.5,0.1-2.2,0.4-4,0.7c-1.8,0.3-3.5,0.6-4.2,0.7c1.6-0.2,4.3-0.4,3.6-0.3
			l-2.8,0.4c-0.1,0.1,1.6-0.1,3-0.3c1.4-0.2,2.5-0.3,1.6,0c0.2,0-2.5,0.9-0.6,0.5c2.6-0.8,13.7-3.1,16.6-3.7c-0.1,0-0.6,0.2-1.3,0.4
			c-0.6,0.2-1.3,0.5-1.9,0.7c-1,0.3-2.6,0.7-4.3,1c-1.7,0.3-3.4,0.7-4.1,0.9c0.8-0.2,2.1-0.4,2.6-0.5c-0.2,0.2-2.5,0.6-1.1,0.5
			c2.8-0.7,1.8,0.1,2.7-0.6c1.6-0.2,0.5,0.1,1.7,0.1c0.6-0.2,2.1-0.6,3.6-0.9c1.5-0.3,2.9-0.7,3.5-0.8c-0.6,0.2-1.1,0.4-1.3,0.5
			c1.3,0.1,1.4,0.4,2.9,0.4c-0.2,0.2,0.2,0.4-0.7,0.7c0.5-0.1,1.1-0.3,1.6-0.4c0,0.6-1.3,0.1-1.8,0.8c0.8-0.4,2.4-0.5,3.4-0.8
			c0.6-0.6-1.3-0.1-2.6,0.1c0.8-0.4,1.9-0.8,2.9-1.2c1-0.4,2-0.7,2.7-0.9c1-0.2-0.3,0.5,0,0.4c0.8,0.1,1.4-0.3,1.8-0.6
			c0.4-0.3,0.6-0.6,1.1-0.3c0.2,0.3,0.2,0.5,0.1,0.8c0,0.3-0.2,0.5-0.1,0.7c-0.9,0.2-1.2-0.3-1.7-0.3c0.2,0.1,0.4,0.2,0.5,0.3
			c-0.3,0.2-1,0.3-1.3,0.2c0.1,0.2,1,0.3,2.1,0.3c1.1,0,2.2,0,3,0.3c0.3-0.2,0.8-0.4,0.5-0.6l-0.5,0.1c-0.5-0.4,1-0.6,0.3-0.8
			c0.7-0.3,1.5-0.8,2.4-0.5l0.2,0.6c0-0.2-0.6-0.4-0.9-0.2c0.4-0.3,1.5,0.8,1.9,0l-0.7-0.4c0.7-0.3,1.5-1,2.4-0.8
			c-0.4-0.6-0.2,0.1-0.8-0.6c0.5,0.9-2.2,0-1.4,0.9c-0.6-0.8-1.1-0.3-1.9-1c0,0.2,0.3,0.4-0.4,0.3c0,0.1-0.1,0.1-0.2,0.2
			c0,0,0,0,0,0l0,0c0,0,0,0,0,0c0.2,0.1,0.3,0.2,0.4,0.3c-0.4,0.5-1.5,0.5-1.9,0.7c-0.4-0.1,0.2-0.2,0-0.5l-0.6,0.4
			c-0.1-0.5-1.1-0.8-0.1-1l-0.9,0c-0.4-0.1-0.3-0.2-0.4-0.3c-0.1,0-0.1,0-0.3,0.1c0-0.1-0.6,0.5-0.3,0.2c-0.2,0.1-0.4,0.2-0.7,0.3
			l0.1-0.1c-0.2,0-0.7,0.2-1.2,0.3c-0.4,0.1-0.9,0.1-0.3-0.3c-0.4,0.1-0.9,0.3-0.9,0.1l1-0.4c-0.3,0.1-0.1,0,0-0.1
			c0.1-0.1,0.1-0.1-0.6,0.1c1.5-0.5,1.7-0.6,1.4-0.5c-0.3,0-1.1,0.2-0.8,0.1l-2.1,0.5c-0.1,0-0.9,0.1-2.3,0.3l-2.1,0.5
			c-1.1,0.2-1,0.1-0.6,0c0.3-0.1,0.9-0.3,0.5-0.3c1-0.2,0.9-0.1,0.4,0c2-0.4,1.6-0.4,0.6-0.2c-0.5,0-1.3,0.2-1.5,0.2
			s-0.1-0.1,1.3-0.3c-0.7,0.1-0.3,0,0.4-0.1c0,0,0,0,0.1,0c0,0,0.1,0,0.1,0c0.4-0.1,0.9-0.2,1.4-0.2c-0.5,0.1-1,0.2-1.4,0.2
			c0.1,0-0.1,0-0.4,0l2.4-0.3h0c1-0.1-1,0.1-2.8,0.3c-0.4,0-0.8,0-1.1,0.1c1.9-0.2,1.7-0.2,1.5-0.3c-0.1,0-0.2,0,1.6-0.3
			c-1.6,0.1-0.4-0.2-3.4,0c0.4,0,0.7-0.1,0.6,0c0.6-0.1,1.2-0.2,0.6-0.3l2.2-0.1c-0.8,0-1.5-0.1-2.1-0.1c1.5-0.1,1.9,0,3.4,0
			c-1.1,0-1.2,0-1.3-0.1c-0.1,0-0.3,0-0.8-0.3l0.7,0.2c0,0-0.2-0.1-0.2-0.2c-0.1-0.1,0-0.1,0.2-0.1c0.3,0.1,0.5,0.1,0.6,0.2h0.1
			c0,0,0,0,0.2,0c0.3-0.1,0.6-0.2,0.9-0.3c1.3-0.4,2.7-0.9,3.9-1c-0.4-0.5-0.1-0.4,0.3-0.4c0.1,0,0.2,0,0.3,0c0,0,0.1,0,0.1,0
			c0.1,0,0.2,0,0.3-0.1c0.4-0.1,0.6-0.3,0.5-0.5c0.4,0.2,1.4,0,0.6,0.5c1.4-0.6,2.5-0.9,3.7-1.3c1.1-0.3,2.1-0.7,2.1-1.1
			c1,0,0.3,0.3,1,0.3c0.1-0.1,0.4-0.4,1.1-0.5c0.8-0.1,0.1,0.2-0.1,0.4c0.4-0.2,0.8-0.3,1-0.4c0.1-0.1,0.1-0.1,0.1-0.2
			c0-0.1-0.2-0.2-0.6-0.3c-0.7-0.1-1.8-0.2-2.8-0.2c1.7-0.3,1.7-0.4,0.7-0.6c0.9-0.1,1.9-0.3,1.5,0c0.5-0.2,2.7-1.1,1.3-1
			c0.5-0.1,0.5-0.2,0.4-0.3c0.7-0.3,0.9-0.4,1.4-0.7l-0.4,0.1c-1,0,0.3-0.2,0.7-0.5h0.1c1-0.3,1-0.4,1-0.6c0-0.1,0-0.1,0.1-0.3
			c0.1-0.2,0.2-0.5,0.3-1l-0.5,0.2c-0.5,0-0.4-0.4-0.5-0.9c0-0.2-0.1-0.4-0.2-0.5c-0.1-0.1-0.3-0.1-0.6,0c0,0,0,0.1-0.1,0.1
			c-0.5,0.1-0.4,0,0-0.2c0.3-0.2,0.9-0.5,0.8-0.5c0.1-0.1,0.3,0,0.5-0.1c0.4-0.5-1.1,0.3-2,0.3c0.5-0.2,1.7-0.5,1.5-0.6
			c0.2-0.1-0.6,0-1.4,0.1c-0.4,0-0.8,0.1-1.1,0.1c-0.3,0-0.5-0.1-0.4-0.3c-0.4,0.3-0.8,0.5-1.8,0.7c-0.5,0-0.4-0.3-0.5-0.5
			c-0.1-0.2-0.5-0.4-1.8,0.1c0.1-0.1,0.2-0.2,0.4-0.3c-0.2,0-0.4,0.1-0.6,0.1c-1.4,0.3-3.2,0.6-4.3,1.1c1.2-0.9-0.7-0.6-2.1-0.3
			c-1.5,0.3-2.7,0.6-2-0.2l-2.7,0.2l0.1-0.2c-1.7,0-2.4,0.4-2.9,0.8c-0.3-0.1-0.1-0.2-0.1-0.3c-1.7-0.3-1.9-0.2-3.3,0.6l-0.2-0.5
			c-0.4,0.3-2.5-0.7-4.1-0.1c0-0.1,0-0.2,0.2-0.2c-1.9,0.6-4.5-1.3-5.1,0.5l-1.2,0.5c1.6,0.1-0.2,0.8,0.4,1.1
			c-0.6,0.1-1.6-0.5-0.9-0.6l0.1,0.1c0.3-0.9-2-0.3-1.9-1c-3.1,0-6.2-0.5-9.1-0.6l0.3,0.7l-1,0c-0.3-0.2-0.4-0.6,0.4-0.5
			c-0.4-0.4-1.2,0.3-1.3,0.5c-1.4-0.3,0.6-0.8,0.1-0.9l-0.6,0l0.1,0.1c-0.5,0.3-0.5,0.6-1.4,0.6c-0.5-0.2-0.3-0.5-0.5-0.5
			c0,0-0.1-0.1-0.3,0l-1.3-0.1l0.5,0.6c-0.6,0.3-1.2-0.1-0.6,0.6c-0.9-1-4.8-0.5-5.4-0.8c-0.8,0.4-1.6,0.4-2.6,0.3
			c0.2,0.1,0.4,0.8-0.5,0.7c0.4-1.3-1.5-0.6-2.2-1.6c0.6,0.7-2.4,0.1-1.5,1c-0.7-0.1,0-0.5-0.5-0.8c-1.7,0.5-3.7-0.5-5.8-0.4
			c0,0.2,0.3,0.5-0.2,0.7l-1.1-0.9c-0.4,0.1-0.4,1-1.1,0.4c0.1,0.2,0.3,0.4,0,0.4c-4-1-8.4,0.3-12.4-1.5c0.5,0.4,0.2,0.4-0.3,0.4
			c0.3,0.1,0,0.4,0,0.7l-1.7-0.8c-0.4,0.6-1.9-0.1-2.1,0.6l0.5-0.1c-0.8,0.7,0.9,1.7,0.8,2.7c0.9-0.8,2.1,1.4,3.5,0.2
			c0.3,0.2-0.3,0.3-0.1,0.5c0.4-0.4,0.8-0.5,1.5-0.2l-0.1,0.1c2.1,0,3,0.5,5.4,0.8l-0.2-0.5c0.5,0.1,0.6,0.2,0.9,0.4
			c0.6-0.7-1.5-0.1-0.9-0.9c0.6,1,3.6,0.2,4.1,1.3c0.8,0-0.2-0.6,0.6-0.5l0.2,0.3l0.2-0.4c0.5,0.1,0.8,0.5,0.8,0.7
			c-0.1,0-0.4,0.1-0.5,0.1c0.7,0.4,1.9,0,2.1,0.1l-0.8-0.2c2.2-0.2,4.8,0.3,6.9-0.2l-0.1-0.2c1.6-0.4,1.3,0.3,3,0.1l-0.1,0
			c0.4-0.2,0.8-0.3,1.3-0.3c-0.5,0.3,0.8,0.5,0.2,0.8c1.8-0.4,0.9-0.3,2-1.1l0.3,0.4c0.4-0.3,0.4-0.5,1.3-0.6
			c-0.7,0.3,0.5,0.6-0.3,1c1.8,0.8,2.8-0.8,3.6,0.4c0.9-1-1.6-0.6-1.1-0.8c-0.4-0.3,0.7-0.8,1.3-0.6c0.6,0,1,1.3,2.5,1.3
			c-0.1,0-0.2,0.1-0.3,0.1c0.5,0.3,1.1-0.3,1.8,0.1c0.4-0.6,0.9,0,1-0.7l-1.4,0.2c0.8-0.2,1.5-1.1,2.8-0.7c-0.1,0.2-0.5,0.4-0.7,0.5
			c0.4,0.2,0.7-0.2,1.1,0.1c-0.1,0.8-1.6,0.2-2.5,0.8c0.4,0.3,1.6-0.5,1.1,0.3c0.6-1.1,1.5,0.2,2.5-0.7l-0.1,0.5
			c0.2-0.1,0.5-0.3,0.8-0.3l-0.5,0.6c0.8-0.5,1.6,0.5,2.4,0.2c-1.6,0-0.4-0.6-1-0.9c2-0.6,1.1,1.3,3.4,1c-0.3,0.1-1.1-0.3-0.7-0.5
			c0.4,0.1,1,0.3,1.3,0.5c1.5-0.1-0.2-0.5,0.4-0.8c0.5,0.6,0.7-0.2,1.4-0.4v0.5c1.7,0.3,0.5-1,2-0.6l-0.6,0.7l0.8-0.2l-0.2,0.5
			c0.9-0.4,1.1-0.3,2-0.2c-0.2-0.3,0.1-0.9,0.9-0.9c0.5,0.3-0.3,0.5,0.8,0.4c-0.2,0.3-0.5,0.7-1,0.3c0,0.2-0.2,0.3-0.3,0.5
			c0.6,0.3,1.4,0.1,1.8,0c-0.1,0-0.3,0-0.4-0.1l1.5-0.7c0.3,0.2,0.1,0.3-0.1,0.5c0.3-0.1,0.5-0.3,1-0.3c-0.1,0.4-0.1,0.8-0.7,1
			l1.5-0.5c0.1,0.2,0.8,0.5,0.6,0.6c0.8,0.2,2-0.8,3.1-0.5c0-0.1,0.2-0.2,0.4-0.2c1,0.1,2,0.5,3.1,0c0.2,0.2,0.6,0.5,0.5,0.7
			c0.1-0.1,0.1-0.3,0-0.5c0-0.2-0.1-0.5,0.3-0.6c0.6-0.3,0,0.6,0.1,0.8c0.1-0.2,0.4-0.5,0.7-0.6c0.3-0.2,0.6-0.2,0.5,0.1
			C485.8,560.2,485.8,560.1,485.7,560.1L485.7,560.1z M491.1,559.5c-0.5,0.1-1.8,0.5-0.8,0.2C492.3,559,491.5,559.3,491.1,559.5z
			 M492.5,561.9c-0.3-0.1,0-0.1,0.8-0.2C493.3,561.8,493.1,561.8,492.5,561.9z M492.8,568.4L492.8,568.4
			C492.6,568.3,492.7,568.3,492.8,568.4z M493.6,568.6c0.1-0.1,0.1-0.1,0-0.2c-0.1,0.1-0.3,0.1-0.6,0.1
			C493.1,568.7,493.3,568.7,493.6,568.6L493.6,568.6z M455.1,555.9l0.2,0.1C454.8,556.2,455,556.1,455.1,555.9z"/>
		<path class="st14" d="M491.8,561.4c0.3,0,0.6,0,0.9,0C492.5,561.4,492.2,561.4,491.8,561.4z"/>
		<path class="st14" d="M480.4,560.6L480.4,560.6C480.4,560.6,480.4,560.6,480.4,560.6L480.4,560.6z"/>
		<path class="st14" d="M469.5,572.7c0-0.1,0.1-0.2,0.4-0.3C469.4,572.6,469.1,572.7,469.5,572.7z"/>
		<path class="st14" d="M499.1,567.8l-0.7,0.1c0.3,0,0.4,0.1,0.6,0.2C499.1,568,498.9,567.8,499.1,567.8L499.1,567.8z"/>
		<path class="st14" d="M505,570.8c0.1-0.1,0.2,0,0.3-0.1l0-0.2C504.8,570.5,504.5,570.7,505,570.8L505,570.8z"/>
		<path class="st14" d="M499.8,569.4c0,0.4,0.5,0.3,0.9,0.2c0,0,0,0-0.1,0C500.8,569,500.3,569.2,499.8,569.4L499.8,569.4z"/>
		<path class="st14" d="M500.8,569.6c0.1,0,0.3,0,0.4,0C501.3,569.3,501.1,569.5,500.8,569.6z"/>
		<path class="st14" d="M494.9,568.3c0.2,0.1,0.1-0.5,0.3-0.3C495.5,567.5,493.7,568.6,494.9,568.3z"/>
		<polygon class="st14" points="500.1,570.7 500,570.2 499.7,570.6 		"/>
		<path class="st14" d="M496.5,570.4l0.8,0.1c0-0.1,0.1-0.1,0.2-0.2C496.9,570.3,496.4,570.2,496.5,570.4L496.5,570.4z"/>
		<path class="st14" d="M497.4,570.3c0.2,0,0.5,0,0.6-0.1C497.9,570.3,497.6,570.3,497.4,570.3z"/>
		<polygon class="st14" points="499.1,570.9 498.9,570.8 498.4,570.7 		"/>
		<path class="st14" d="M489,570.3l-0.9,0.1c-0.3,0.2-0.3,0.3,0.1,0.2C488.5,570.5,488.9,570.4,489,570.3L489,570.3z"/>
		<path class="st14" d="M490.4,571.6c-0.2-0.1-0.2-0.2-0.2-0.4l-0.4,0.6L490.4,571.6z"/>
		<path class="st14" d="M487.3,571.8c-0.3,0.2-2.2,0.5-0.7,0.5C486.9,572.1,488.1,572,487.3,571.8z"/>
		<polygon class="st14" points="475,571 475.3,571 479.6,570 		"/>
		<path class="st14" d="M461.6,570.8c-2.8,0.7,2.7-0.3-0.1,0.4c0.9,0,2.3-0.5,3-0.5C464,570.5,465.2,570.3,461.6,570.8L461.6,570.8z
			"/>
		<path class="st14" d="M464.4,570.6c0.1,0,0.2,0,0.4,0C464.7,570.6,464.6,570.6,464.4,570.6z"/>
		<polygon class="st14" points="417.2,554 416.6,553.7 417,554.1 		"/>
		<path class="st14" d="M416,554.7l-0.1-0.7l-0.4,0.6C415.6,554.5,415.9,554.5,416,554.7L416,554.7z"/>
		<path class="st14" d="M486.4,561.1l0.7-0.2c0.7-0.2,0.7-0.2,0.8-0.3L486.4,561.1z"/>
		<polygon class="st14" points="486.5,560.6 486.5,560.6 487.6,560 		"/>
		<path class="st14" d="M484.5,561.5c0,0,0.1-0.1,0.1-0.1C484.6,561.5,484.7,560.7,484.5,561.5z"/>
	</g>
	<path d="M507.5,590.2c0,0,7.1,23.4,30.5,23.7c0,0-15.8-9.3-10.7-23.7"/>
	<path class="st0" d="M508.8,584.8c0,0,4.9,22.3,22.1,26.2c0,0-11-8.3-7.7-26.2"/>
</g>
<g id="Layer_4">
	<path d="M670,676.5c0,0,16.3,13.7,22.1,9.2c0,0,1.1,21.1-14.5,15.2C662,695,664.4,682.3,670,676.5z"/>
	<path d="M736.5,606.7L719.4,660c44.9,1.7,61.5,11.9,64.7,16.5c0,0,1.3-3.7-2.3-6.9c0,0,25.9-52.2,19.3-56.5
		c-5.4-3.5-40.9-10.3-56.1-11.9C741.2,600.8,737.6,603.1,736.5,606.7L736.5,606.7z"/>
	<path class="st0" d="M733,631.2l30.5,2.9c0,0-6.6,23.2-10.6,24.6c-2.3-1.7-20-2.4-28.4-1.4L733,631.2L733,631.2z"/>
	<path class="st0" d="M770.7,608.6l24.8,5.7c2.6,0.7,4.1,3.6,3.1,6.1l-6.3,17.8l-26.7-5.1L770.7,608.6L770.7,608.6z"/>
	<g>
		<path d="M657.4,601.4l-4.8,38.8c-7.3-6.5-27.3-0.3-28.6,1.4c0,0-0.5-2.4,1.1-3.3c0,0-6.5-36.6-3.4-39.6c2.7-2.6,22.5-5,32.3-4.8
			C656.6,594,658,597.3,657.4,601.4L657.4,601.4z"/>
		<path class="st0" d="M642.1,597.9c0,0,12.4-4.9,12.5,1.6c0.1,6.6-1.7,19.8-1.7,19.8s-11.7,1.7-11.6-3.2
			C641.4,611.2,642.1,597.8,642.1,597.9L642.1,597.9z"/>
		<path class="st0" d="M626.2,623.5c0,0,12.7-1.8,13.5-0.3s0.5,11.5,0.5,11.5s-10.2,1.6-13,3C627.2,637.7,624.8,624.4,626.2,623.5
			L626.2,623.5z"/>
	</g>
	<path class="st15" d="M672.2,681.3c6.1,2.2,5.9,5,6,9.1c0,0.3,0.4,0.5,0.5,0.2c0.8-2.6,2.4-5,6.6-3.1c5.9,1.9,3.6,4.5,1.6,7.7
		s-5.5,7.9-14.1,1.9C664.2,691.1,667.8,679.7,672.2,681.3L672.2,681.3z"/>
	<path d="M809.1,652.3c-1.5-4.7-0.8-9.9,2-14.1c8-12.3,34.3-36.7,51.7-30.1c24,11-30.9,29.2-30.9,29.2s22.6,3.5,14.8,14.1
		c-4.6,6.3-24.4,1.2-24.4,1.2s6.2,6.7,0.7,10C817.5,665.7,811.7,660.6,809.1,652.3L809.1,652.3z"/>
	<path class="st0" d="M810.4,652.2c-1.3-4.2-0.7-8.7,1.7-12.4c7-10.8,32-33,47.3-27.1c16.2,8-30.5,24.8-30.5,24.8
		s20.1,4.5,14.2,12.3c-3,4.4-23.5,1.1-23.5,1.1s5.5,7.3,2.6,9.5C817.6,663.3,812.8,659.6,810.4,652.2L810.4,652.2z"/>
	<path class="st16" d="M687.7,765.9c0,0,2.6-13.5,12.9-14.9"/>
	<path class="st16" d="M704.3,779.6c0,0,2.6-13.5,12.9-14.9"/>
	<path class="st16" d="M606.6,680.5c0,0,11.3-7.7,19.7-1.4"/>
	<path class="st16" d="M608.7,701.9c0,0,11.3-7.7,19.7-1.4"/>
	<path class="st17" d="M812.4,650.4c-1.8,0-2.6-0.8-3-1.6c-1-1.9,0-4.8,1.3-6.8c1.5-2.2,3.5-3.4,5.3-3.2c1.3,0.1,2.3,0.7,3,1.7
		c1.6,2.3,0.7,6.1,0.6,6.3c0,0.2-0.3,0.3-0.5,0.3c-0.2,0-0.3-0.3-0.3-0.5c0,0,0.9-3.6-0.5-5.6c-0.5-0.8-1.3-1.2-2.4-1.3
		c-1.5-0.2-3.2,0.9-4.6,2.9c-1.4,2.1-2,4.6-1.3,6c0.4,0.8,1.2,1.1,2.3,1.1c2.9,0,3.8-1.7,4.1-2.7c0.3-1.3,0-2.6-0.6-2.9
		c-0.7-0.4-1.3,0-1.5,0.2c-0.5,0.4-0.8,1.2-0.5,1.8c0.1,0.2,0,0.4-0.2,0.5c-0.2,0.1-0.4,0-0.5-0.2c-0.4-0.9-0.1-2,0.7-2.7
		c0.7-0.6,1.7-0.8,2.5-0.3c1,0.5,1.4,2.3,1,3.8C817,648.1,816,650.4,812.4,650.4L812.4,650.4z"/>
	<path class="st18" d="M766.6,635.3l-9.6,24.2c0,0,14.9,2.6,22.8,9c0,0,12-26.2,11.5-27.7C791.3,640.8,776.2,637.1,766.6,635.3
		L766.6,635.3z"/>
	<path class="st18" d="M652.7,620.8l-2,14.7c0,0-5.9-1.8-9.4-0.7v-13.2c0-0.9,0.8-1.7,1.7-1.6L652.7,620.8L652.7,620.8z"/>
</g>
</svg>
