<?xml version="1.0" encoding="utf-8"?>
<!-- Generator: Adobe Illustrator 27.5.0, SVG Export Plug-In . SVG Version: 6.00 Build 0)  -->
<svg version="1.1" id="Layer_9" xmlns="http://www.w3.org/2000/svg" xmlns:xlink="http://www.w3.org/1999/xlink" x="0px" y="0px"
	 viewBox="0 0 1348.5 1420.6" style="enable-background:new 0 0 1348.5 1420.6;" xml:space="preserve">
<style type="text/css">
	.st0{fill:#919FC7;}
	.st1{fill:url(#SVGID_1_);}
	.st2{fill:url(#SVGID_00000153663856232041325090000001528119287051698604_);}
	.st3{fill:#8EC741;}
	.st4{fill:url(#SVGID_00000080894173686012958120000003334663254784903593_);}
	.st5{fill:#EAA3C8;}
	.st6{fill:#FFFFFF;}
	.st7{fill:#4C61AC;}
	.st8{fill:#4F888E;}
	.st9{fill:#197F60;}
	.st10{fill:#B2431D;}
	.st11{fill:#9B2A6A;}
	.st12{fill:#D27A28;}
	.st13{fill:#C7494E;}
	.st14{fill:#0D302E;}
	.st15{fill:none;stroke:#6E5CA7;stroke-width:7;stroke-linecap:round;stroke-miterlimit:10;}
	.st16{fill:#211F1F;}
	.st17{fill:#D0E28D;}
	.st18{fill:#3777BC;}
	.st19{fill:#89AEDC;}
	.st20{clip-path:url(#XMLID_00000155865156237289435700000016625289098081857152_);}
	.st21{fill:none;stroke:#000000;stroke-width:4;stroke-miterlimit:10;}
	.st22{fill:#E50000;}
</style>
<path d="M686.8,678.7c0,0,89.8-16.9,102.9,125.8c0,0,6.2-9.1,38-21.4c14.9-5.7,29.2-12.8,42.7-21.1c112.8-69.7,244.3-42.8,217.7,82
	c-6.8,30.6-33.3,79.1-111.2,88.1c0,0-24.1,41.7-87.1,87.4c-14.5-2.1,34.6,46.6,13.9,94.4c59.1-75.4,128.2-229.5,203.4-180.1
	c14.2,9.3,24.3,23.6,29.3,39.8c29.2,94.9,33.1,226.7-247.3,333.6c-76.2,24.1-285.5,57.5-482.7-44.6c0,0-45.9,13-90.7-29.9
	c-8.7-8.4-13.9-19.8-14.5-31.9c-2.1-38.3,2.1-111.9,43.3-157.6C481.1,888,334.8,692.1,686.8,678.7z"/>
<g>
	<path d="M968.4,604c-0.5,0.2-0.7,0.3-0.7,0.3S968,604.2,968.4,604z"/>
	<path d="M1091.1,414.2c-5.6-3.7-15.7-8.4-18.1-7.3c-3.1-1.4-6.6-4.3-11.4-6.6c0,0,6.2-26.1-12.3-38.6
		c-14.3-13.1-35.8-25.1-35.8-25.1s1-12.1-0.4-12.9l24.1-27.5l-3.4-4.6l50.6-52.4l-64.8,3.5c0,0,29.3-66.8,20.6-69.5
		c-8.7-2.7-43.6-26.7-289.8,143.8c-28,10.9-30.7-0.1-144.5,40.8c-51.5,23.4-25.7-132.3-52.3-212.5c-4.3-13-26.3-15.4-35-4.8
		l-92.9,106.5l-124.7-68l36.4,140.2c0,0-45.4,8-46.9,40.2c0,0-27.9-5.2-25.9,19.1l-22.3,1.5c-9.8,0.6-22,8-23.9,17.5
		c-5.8,28.2-20.1,101.4,13.6,113.9c0.3,23.9-14.3,70.8,4.8,95.5s25.5,23.1,25.5,23.1s-17.5,75.6,58.1,67.6
		c75.6-8,90.7-10.3,90.7-10.3l-47.7,50.1L487.3,713c7.6-1.5,15,3.3,16.9,10.8l21.4,87.6l56.7-51.7c3.5-3.2,9-2.7,11.9,1.1l26.5,35.1
		l48.1-70.4c0,0,62.3-25,143.5-23c35.8-2,13.6-13.8,57.8-40.8l57.6,51.5l-5-81.2l81.4-1l-59.9-60.5l7.9-5.4c0,0,6.9,8.9,21.8,14.7
		c26.8,10.1,49.7-59.3,50.8-62.3c0,0,15.7,9.3,20.9-11.9l7,2.2c0,0,9.4,5.1,15.8-11.6C1074.7,479.4,1100.1,420.1,1091.1,414.2
		L1091.1,414.2z"/>
</g>
<path class="st0" d="M956.6,562.1l36.8-22.6l-31.9-11.2l69.6-146.9c3.2-6.2,10.4-5.3,15.8-0.9c4.9,4,11.2,5.4,7.7,16.1
	c-6.9,21.7-41.9,167.7-73,173.9C965.4,573.8,956.6,562.1,956.6,562.1z"/>
<linearGradient id="SVGID_1_" gradientUnits="userSpaceOnUse" x1="409.0099" y1="862.8271" x2="978.9241" y2="862.8271" gradientTransform="matrix(1 0 0 -1 0 1420)">
	<stop  offset="0" style="stop-color:#8EC741"/>
	<stop  offset="1" style="stop-color:#E8EA82"/>
</linearGradient>
<path class="st1" d="M409,715.7l48.1-43.6c0,0,84.3-9.7,85.9-32.8s33-209.6,14.7-252.6c0,0,189.4-75.2,255.8-41.4
	c66.4,33.8,72,73.2,68.8,83.5c3,78,18.3,86,15.9,107.9c0,0,8.4,1.8,7.7-17.3l60.6,21.9l-39.1,28.1l51.4,51.1c0,0-70.5-3.5-70.5-2.6
	s4.9,67.3,4.9,67.3l-36.5-36c0,0,37.4-32.2,19.1-53.5c-6.9-6.9,5.3-20.3,5.3-20.3s-12-8.7-11.4,8.7c1.4,15.5,13.7,42.8-31.4,70.6
	c-25.1,14.2-20,32.1-50.7,38.4c-30.7,6.3-78.4-4.4-160.4,19.8c0,0,12.9-1.2,12.9,1.2s-39.9,58.3-39.9,58.3L596,713.3l-60.4,64.5
	L513.2,697L409,715.7L409,715.7z"/>
<linearGradient id="SVGID_00000138555250208296410890000007388588174372874928_" gradientUnits="userSpaceOnUse" x1="784.4222" y1="1097.6295" x2="1027.5272" y2="1097.6295" gradientTransform="matrix(1 0 0 -1 0 1420)">
	<stop  offset="0" style="stop-color:#8EC741"/>
	<stop  offset="1" style="stop-color:#E8EA82"/>
</linearGradient>
<path style="fill:url(#SVGID_00000138555250208296410890000007388588174372874928_);" d="M788.6,310.2
	c14.7-15.5,156.1-124.9,235.6-127.7c25.1,0-100.2,232.1-129.4,279.9c0,0-6.6-27.2-1.9-40.3s-25.5-91.5-90.2-93.4
	C802.7,328.6,773.9,325.7,788.6,310.2z"/>
<path class="st3" d="M440.1,259.2l10.1,6.9c2.7,1.8,6.4,1.3,8.5-1.3c8.3-10.5,25.8-33.3,37.8-38.5c3.2-1.4,6.8,0.2,8.2,3.4
	c7.3,17.9,10.4,83,11.1,99.3c0.1,2.2,1.4,4.3,3.3,5.3c8,4.2,28.8,16.8,34.7,36.9c1,3.3,4.3,5.3,7.6,4.4l0.4-0.1
	c5.1-1.2,13.5-11.3,9.4-14.5c-4.5-3.4-8.3-8.6-9.1-16.1c-1.8-17.8-12.4-165.9-28.8-191.4c-1.8-2.8-5.5-3.7-8.4-2.1
	c-21.2,12.2-71.7,79.2-86.2,98.7C436.4,253.1,437.1,257.2,440.1,259.2z"/>
<linearGradient id="SVGID_00000060718832822023059670000016722458921241526719_" gradientUnits="userSpaceOnUse" x1="316.2632" y1="410.05" x2="1122.5764" y2="410.05" gradientTransform="matrix(1 0 0 -1 0 1420)">
	<stop  offset="0" style="stop-color:#8EC741"/>
	<stop  offset="1" style="stop-color:#E8EA82"/>
</linearGradient>
<path style="fill:url(#SVGID_00000060718832822023059670000016722458921241526719_);" d="M504.7,737.3
	c-47.8,34-58.4,59.8-91.4,204.8c0,0.1,0,0.2,0,0.3c-11,79.2-101.3,106-96.7,241.8c0,45.5,49,73,74.1,64s-3.9-12.2,11.3-71.4
	c0.1-0.3,0.1-0.5,0.2-0.8c0.8-3,5.2-2.1,4.8,1c-16.5,155.6,319.2,144.1,465.2,105.5c157-42.5,250.5-130.5,250.5-243.7
	c0-107.3-98.9-122-167.7,39.5c-53.7,126-381,215.8-451.2,85c-1.3-2.4,1.7-4.7,3.7-3c74.8,100.9,402,38,380.2-91.2
	c0-0.1,0-0.2-0.1-0.3c-8.4-33.2-24.7-73.2-101.7-92.8c-0.1,0-0.1,0-0.2,0c-22.4-4.3,5.1-19.4,81.9,10.7
	c46.3,21.5,77.7-32.1,112.8-74c1.5-1.8,4.4-0.6,4.3,1.8c0,0.3-1.4,4.6-1.2,4.6c71.3,7.9,130.9-143.9,37.5-170.5
	c-0.1,0-73.2-24.6-153,35.3c-76.2,23.7-71.9,18.6-48,58.6c1.5,2.6-2,5.2-4,2.9c-5.8-6.6-12.5-13.8-18.1-18.8
	c-2.2-1.9-5.6-0.4-5.6,2.5c0,0.1,0,0.2,0,0.3c0,4.2-6.2,4.5-6.7,0.3c-12-114.8-77.7-174.1-162.4-40c-1,1.6-3.1,2.1-4.7,1
	c-7.8-7.4-29.3-34.1-29.3-34.1c0,0-46.2,41.4-59.5,52.1c-1.9,1.6-4.8,0.5-5.4-1.9c-2.9-13.3-11.8-54.5-14.6-67.4
	C509.3,737,506.6,736,504.7,737.3z"/>
<polyline class="st3" points="889.6,458.8 895,478.2 896.3,466.2 889.6,458.8 "/>
<path d="M813.6,68.7c0,0,244.3,137.6,275.9,159.7c0,0,8.1,11.5-13.9,32.4s-41.2,35.7-41.2,35.7l-3-3.4l48.3-53.1
	c0,0-247-125.8-290.6-138.4C745.5,89.2,343.4,131,343.4,131l31-25.5C374.4,105.5,699,64.5,813.6,68.7L813.6,68.7z"/>
<path class="st0" d="M243,518.6c0,0-20.3,72.9,21.5,86s193.4,11.9,208.4-18.4c12.4-25,10.7-153.2,9-197.2c-0.3-8.4-7-15.1-15.4-15.4
	l-71.3-2.3l1.9,13.6c0,0,53.7-0.9,55.2,10.6c1.6,12.6,12.4,92.4,9.2,99c-3.2,6.6-10.1,15.8-19.9,15.8c0,0,4.6,44.6-4.3,47.2
	c-8.9,2.6-152.7,16.2-167.4,6.4c-14.7-9.8-6.7-38.7-6.7-38.7L243,518.6L243,518.6z"/>
<path class="st0" d="M325.2,368.3v9l-50.1,1.5v-5c0-3.8,3.1-6.9,7-6.7L325.2,368.3L325.2,368.3z"/>
<ellipse transform="matrix(0.9264 -0.3766 0.3766 0.9264 -170.3572 369.9429)" cx="860.9" cy="620.7" rx="10" ry="5.3"/>
<path d="M550.8,576.5c-0.4,14.4,3.4,56.1,8.2,57.3s171.3-4.8,175.2-3.6c0,0-22.5-199.3-36-200.9c-13.5-1.6-136.3,45.8-136.3,45.8
	S556.7,532.9,550.8,576.5L550.8,576.5z"/>
<path class="st5" d="M499.7,328c0,0,4.3-92.8-2.8-94.5c-7.3-1.6-37.3,39.7-37.3,39.7s2.5,3.5,1.3,4.7l-146.9-79.1l34.9,116.8
	C349.1,315.6,433.3,304.4,499.7,328L499.7,328z"/>
<path class="st6" d="M627.4,551.1c14.9,0.3,65.1-1,81.9-5.3c2.8-0.7,5.6,1.2,5.9,4l7.5,69.6l-90.1,5.4l-8.7-69.8
	C623.7,552.9,625.3,551.1,627.4,551.1L627.4,551.1z"/>
<path class="st6" d="M561.6,485.8l47.9-15.3c1.6-0.5,3.3,0.6,3.4,2.4c0.4,11.5,4.3,52.5,6.5,69.6c0.5,4.2-2.5,8-6.7,8.5l-55.8,6.3
	L561.6,485.8L561.6,485.8z"/>
<path class="st7" d="M276.9,635.7c0,0-7.2,39,34.6,37.2s204.5-18.5,214-37.2s44.4-261.7,5-284c-40.2-22.8-188.4-39.1-227.2-5.8
	c-7.2,6.9-6.7,13.1-6.7,13.1s200.1-9,200.6,6c0.6,14.9,16.1,223.2-19.7,246.4S311.4,641.5,276.9,635.7L276.9,635.7z"/>
<path class="st7" d="M898.7,481.8c0,0-4,23.5,13.5,29.4s38.3,13.5,38.3,13.5s47.5-106.2,55.5-123.7s21.3-33.1-3.8-44.2
	c-25.1-11.1-28.5-14.7-28.5-14.7S903.1,473,898.7,481.8L898.7,481.8z"/>
<path class="st8" d="M1031,506l28.2-92.7c0,0,7.7,4.4,7.4,5.8c-2.6,12.5-21.8,82-25.7,85.2C1038.2,506.5,1036.5,507.8,1031,506
	L1031,506z"/>
<path class="st8" d="M271.2,530.9l0.6,11.9c0.3,5.7,5,10.1,10.7,10l140.2-2.3c5.8-0.1,10.4-4.8,10.4-10.6v-12.5c0-6-5-10.8-11-10.6
	l-143.8,6.3C274.2,523.3,271,526.8,271.2,530.9L271.2,530.9z"/>
<path class="st8" d="M427.4,501.9l-171.9,4.9c-16.9,0.7-30.7-13.3-29.7-30.2l3.4-60.8c0.9-15.4,13.7-27.3,29.1-27l160.6,3
	c14.4,0.3,26.3,11.1,27.9,25.4l7.8,52.9C456.5,486.6,444,501.2,427.4,501.9L427.4,501.9z"/>
<path class="st8" d="M1076,424.6c0,0-3.3-2.4-5.1,5.6c-2.3,9.8-17.4,60.3-16.1,60.3s7.8,3.8,10.5-2c2.8-5.8,21.4-56,18.6-58.5
	C1081.1,427.6,1076,424.6,1076,424.6L1076,424.6z"/>
<path class="st9" d="M287.8,452c-0.2,12.7-11.7,21.2-23.8,19.6c-10.4-1.4-18.1-10.1-18.3-19.7s7.3-18.9,18.1-20.3
	C276.4,429.9,288,439,287.8,452L287.8,452z"/>
<path class="st10" d="M358.5,452c-0.2,12.7-11.7,21.2-23.8,19.6c-10.4-1.4-18.1-10.1-18.3-19.7s7.3-18.9,18.1-20.3
	C347.1,429.9,358.7,439,358.5,452z"/>
<path class="st11" d="M425.5,452c-0.2,12.7-11.7,21.2-23.8,19.6c-10.4-1.4-18.1-10.1-18.3-19.7s7.3-18.9,18.1-20.3
	C414,429.9,425.7,439,425.5,452z"/>
<path class="st3" d="M284.4,448.2c-0.2,12.7-11.7,21.2-23.8,19.6c-10.4-1.4-18.1-10.1-18.3-19.7s7.3-18.9,18.1-20.3
	C273,426.1,284.6,435.2,284.4,448.2L284.4,448.2z"/>
<path class="st12" d="M355.1,448.2c-0.2,12.7-11.7,21.2-23.8,19.6c-10.4-1.4-18.1-10.1-18.3-19.7s7.3-18.9,18.1-20.3
	C343.7,426.1,355.3,435.2,355.1,448.2z"/>
<path class="st13" d="M422.1,448.2c-0.2,12.7-11.7,21.2-23.8,19.6c-10.4-1.4-18.1-10.1-18.3-19.7s7.3-18.9,18.1-20.3
	C410.7,426.1,422.3,435.2,422.1,448.2z"/>
<polygon class="st14" points="619.3,462.3 691.4,439.6 712.1,534.8 628.6,540.5 "/>
<path d="M651.8,865.3c74.2-14.7,103.1,49.7,35.4,66c-20.2,4.9-49.3-0.6-49.3-0.6c10,62.1-38.2,46.6-70.4,0.9
	c-24.4-42.1-23.4-64.2-8.3-79.4c34.2-34.6,144.4-112.6,187.1-82.4C789,800,651.8,865.3,651.8,865.3L651.8,865.3z"/>
<path d="M408.6,843.8c-74.2-14.7-115.7,48.9-48,65.2c20.2,4.9,62,0.2,62,0.2c-10,62.1,35.9,53.1,70.4,0.9
	c24.4-42.1,23.4-64.2,8.4-79.4c-34.2-34.6-144.4-110.4-187.1-80.2C264.2,788.1,408.6,843.8,408.6,843.8L408.6,843.8z"/>
<path class="st6" d="M424.3,849.2c-61.8-12.2-100.3,37.9-44,51.5c16.8,4.1,51.9,0.7,51.9,0.7c-12.1,58.2,29.9,44.2,58.6,0.8
	c20.3-35,19.5-53.4,7-66.1c-28.5-28.8-122-97.7-157.6-72.6C304.6,788.6,424.3,849.2,424.3,849.2L424.3,849.2z"/>
<path class="st6" d="M634,871.8c61.8-12.2,103.9,35,47.6,48.6c-16.8,4.1-54.4,1.3-54.4,1.3c12.1,58.2-29.9,44.2-58.6,0.8
	c-20.3-35-19.5-53.4-7-66.1c28.5-28.8,122-97.7,157.6-72.6C754.8,808.9,634,871.8,634,871.8L634,871.8z"/>
<path class="st15" d="M495.5,878.3c0,0,13.6-32.6-10.8-39c-24.4-6.4-56.6,45.9-25.3,50.5c26.3,3.9,29.7-22.8,22.7-28.4
	c-7-5.6-16.7,2.8-14.8,10.3"/>
<path class="st16" d="M864.9,412.2c0,0-22.3-23.1-20.9,5.6c1.4,28.6,5.8,103.4-3.4,115.8s-11.9,18.3,3.4,17.1
	c15.3-1.2,32,0,28.8-13.1s-19.5-101-8-99.9c11.5,1.2,69.2,71.9,67.6,76.1s23.9-9.3,21.9-22S907.1,462.3,864.9,412.2L864.9,412.2z"/>
<path class="st5" d="M1016.4,252.5l-34.3,76.6l4,1.4c0,0,3.5-14.7,8.3-12.7c0,0,75.3-70,71.9-70.2S1016.4,252.5,1016.4,252.5z"/>
<path d="M360.1,252.7c0,0-21.5-126.6-39-136.1l53.3-11.1c0,0,24.6,36.6,29.4,147.2H360.1z"/>
<path d="M325.9,383.1c0,0-11.5-43.7,33.8-46.5c26.3-3.2-11.9-82.8-6.8-86.3s56.1,1.2,56.1,1.2s40.6,79.9,6.8,87.1
	s-18.3,47.7-18.3,47.7"/>
<path class="st15" d="M563.8,892.2c0,0-8.7-34.2,16.4-36.9s49.2,53.7,17.6,53.7c-26.5,0-26-27-18.2-31.4c7.8-4.5,16.1,5.2,13.2,12.3
	"/>
<path class="st0" d="M332.2,377.3c0,0,33.3,8.8,43.8,1.5c0,0-0.5-29.2,14.5-38.6s26.9-2.5,13.6-46.5c0,0-23,13.7-36.1,2.9
	c0,0,13.9,35-0.4,41.1C353.3,343.8,324.8,345,332.2,377.3L332.2,377.3z"/>
<path class="st17" d="M412.7,294l7.1-3.1c0,0,10.7,29.9,3.4,38.5s-22.5,6.7-29.5,19.2s0,30.1,0,30.1h-7.6c0,0-3.8-33.9,14-39.5
	C417.8,333.6,420.6,324.7,412.7,294L412.7,294z"/>
<path class="st18" d="M356.3,254.6l43,4l4.4,32.4c0,0-28.7,14.1-36.5,2.4L356.3,254.6L356.3,254.6z"/>
<path class="st19" d="M404.4,257L404.4,257c1.9-1.3,4.5-0.5,5.4,1.6c2.6,6.4,7.5,18.6,9.2,24.4c0.5,1.7-0.3,3.4-1.9,4.2l-3,1.5
	c-2.1,1.1-4.7-0.2-5.1-2.6c-1-5.6-3-15.4-6-25C402.5,259.6,403.1,257.9,404.4,257L404.4,257z"/>
<path class="st19" d="M328,118l42.4-5.8c0,0,35,75.2,24.8,139.7l-31.6-1.4C363.5,250.5,358,179.1,328,118L328,118z"/>
<path class="st17" d="M995.7,328.4l-1.3,6.2c-0.3,1.3,0.2,2.6,1.2,3.5l30.3,21c1.6,1.4,6.4-4.3,4.9-5.6l-24.4-15.4
	c-1.1-0.9-1.5-2.4-1.1-3.8l1-3.5c0.6-2-0.7-4.1-2.7-4.6l-3.3-0.8C998.1,325,996.1,326.3,995.7,328.4L995.7,328.4z"/>
<path class="st7" d="M385.7,112.2c0,0,348.6-48,414.5-34.9c60.5,12.1,275.1,150.2,275.1,150.2l4.2,7.7c0,0-243.6-145.1-277.7-151.3
	c-29.9-5.4-340.9,27-413.4,33.4L385.7,112.2L385.7,112.2z"/>
<polygon class="st18" points="999.3,320.5 1008.7,322.4 1032.8,296.5 1029.7,289.3 "/>
<path d="M753.2,710.7c-0.1,0-3.3-2.2-3.4-2.2c-7.1-0.1-13.5-3.5-16.8-9c-2.8-4.6-2.9-10-0.4-14.8l15.1-28.6c0.2-0.5,0.9-0.5,1.2-0.1
	l2.1,2.4c0.2,0.2,14.7,21.1,32.4,21.1c2.8,0.5,10.9-1.5,17.5-3.3c3.1-1.2,4.4,2.6,1.3,3.5l-14.4,4.4c-0.1,0-20.5,21-20.5,21
	C763.6,707.9,758,710.7,753.2,710.7z"/>
<g>
	<defs>
		<path id="XMLID_00000164508617091067218620000005229888549366448566_" d="M748.8,665.8c0,0,14.8,21.1,31.5,19.4l-19.2,14.4
			c-10.6,6.4-25.7,1.2-25-9.8L748.8,665.8z"/>
	</defs>
	<use xlink:href="#XMLID_00000164508617091067218620000005229888549366448566_"  style="overflow:visible;fill:#E50000;"/>
	<clipPath id="XMLID_00000039844444830757219120000001650150179469801643_">
		<use xlink:href="#XMLID_00000164508617091067218620000005229888549366448566_"  style="overflow:visible;"/>
	</clipPath>
	<path style="clip-path:url(#XMLID_00000039844444830757219120000001650150179469801643_);" d="M742.3,678.2c0,0,23.2,2.2,23.1,18.3
		l32.7-18.2l-55.7-25.6L742.3,678.2z"/>
</g>
<path class="st21" d="M823.6,665.1"/>
<path class="st21" d="M797.5,674.9"/>
<path class="st21" d="M797.5,674.9"/>
<path class="st6" d="M750.4,665.2l0.4,12.5l10.9-2.2C755.3,672.1,752.8,669.2,750.4,665.2z"/>
<path class="st22" d="M737.6,696.1c-5.5-7.5,7.4-11.9,14.7-11.9c7.3,0,13.2,5,13.2,11.1s-5.9,11.1-13.2,11.1
	C745.1,706.3,742,702,737.6,696.1z"/>
</svg>
